<svg width="512" height="512" viewBox="0 0 512 512" fill="none" xmlns="http://www.w3.org/2000/svg">
<path d="M469.333 123.733C453.298 130.69 436.34 135.289 418.986 137.387C437.294 126.45 451.014 109.243 457.6 88.9601C440.396 99.2014 421.563 106.417 401.92 110.293C388.79 96.0549 371.306 86.5771 352.209 83.3462C333.112 80.1154 313.483 83.3144 296.401 92.4415C279.318 101.569 265.748 116.107 257.818 133.778C249.889 151.448 248.049 171.251 252.586 190.08C217.801 188.321 183.775 179.263 152.718 163.496C121.661 147.729 94.2686 125.604 72.3198 98.5601C64.6214 112.004 60.5762 127.228 60.5865 142.72C60.5592 157.107 64.0898 171.277 70.8639 183.969C77.6381 196.662 87.4456 207.482 99.4132 215.467C85.5033 215.088 71.8907 211.356 59.7332 204.587V205.653C59.8374 225.811 66.901 245.314 79.7292 260.863C92.5574 276.413 110.363 287.054 130.133 290.987C122.523 293.303 114.621 294.524 106.667 294.613C101.16 294.549 95.6675 294.05 90.2398 293.12C95.8699 310.46 106.765 325.614 121.409 336.473C136.054 347.332 153.719 353.356 171.947 353.707C141.167 377.926 103.165 391.144 63.9998 391.253C56.8689 391.277 49.7435 390.849 42.6665 389.973C82.6543 415.792 129.255 429.498 176.853 429.44C209.7 429.781 242.285 423.574 272.706 411.18C303.127 398.787 330.774 380.456 354.031 357.259C377.288 334.061 395.69 306.462 408.161 276.073C420.632 245.684 426.923 213.114 426.666 180.267C426.666 176.64 426.666 172.8 426.666 168.96C443.407 156.476 457.845 141.172 469.333 123.733Z" fill="#F47421"/>
</svg>
