<svg width="24" height="24" viewBox="0 0 24 24" fill="none" xmlns="http://www.w3.org/2000/svg">
<g clip-path="url(#clip0_753_11572)">
<path d="M18.64 8C18.64 9.46823 17.4652 10.65 16 10.65C14.5333 10.65 13.35 9.4667 13.35 8C13.35 6.5333 14.5333 5.35 16 5.35C17.4652 5.35 18.64 6.53177 18.64 8ZM10.64 8C10.64 9.46823 9.46518 10.65 8 10.65C6.5333 10.65 5.35 9.4667 5.35 8C5.35 6.5333 6.5333 5.35 8 5.35C9.46518 5.35 10.64 6.53177 10.64 8ZM1.35 16.5C1.35 16.0461 1.57464 15.6228 2.00338 15.2274C2.4345 14.8298 3.04825 14.4845 3.75628 14.2012C5.17291 13.6343 6.87871 13.35 8 13.35C9.12129 13.35 10.8271 13.6343 12.2437 14.2012C12.9517 14.4845 13.5655 14.8298 13.9966 15.2274C14.4254 15.6228 14.65 16.0461 14.65 16.5V18C14.65 18.3567 14.3567 18.65 14 18.65H2C1.6433 18.65 1.35 18.3567 1.35 18V16.5ZM15.9304 13.3504C15.9539 13.3501 15.9771 13.35 16 13.35C17.1213 13.35 18.8271 13.6343 20.2437 14.2012C20.9517 14.4845 21.5655 14.8298 21.9966 15.2274C22.4254 15.6228 22.65 16.0461 22.65 16.5V18C22.65 18.3567 22.3567 18.65 22 18.65H17.2813C17.3249 18.4412 17.35 18.2232 17.35 18V16.5C17.35 15.1958 16.78 14.1601 15.9304 13.3504Z" stroke="#4A4A4A" stroke-width="0.7"/>
</g>
<defs>
<clipPath id="clip0_753_11572">
<rect width="24" height="24" fill="white"/>
</clipPath>
</defs>
</svg>
