<svg width="24" height="24" viewBox="0 0 24 24" fill="none" xmlns="http://www.w3.org/2000/svg">
<g clip-path="url(#clip0_753_11580)">
<path d="M14.2296 8.17705C14.2296 9.74324 12.9763 11.0041 11.4131 11.0041C9.84844 11.0041 8.58606 9.74171 8.58606 8.17705C8.58606 6.61238 9.84844 5.35 11.4131 5.35C12.9763 5.35 14.2296 6.61085 14.2296 8.17705ZM4.35 17.1787C4.35 16.6904 4.59187 16.237 5.04859 15.8158C5.5077 15.3924 6.1602 15.0256 6.91127 14.725C8.41399 14.1237 10.2231 13.8221 11.4131 13.8221C12.6031 13.8221 14.4122 14.1237 15.9149 14.725C16.666 15.0256 17.3185 15.3924 17.7776 15.8158C18.2344 16.237 18.4762 16.6904 18.4762 17.1787V18.7672C18.4762 19.1564 18.1564 19.4762 17.7672 19.4762H5.05902C4.66986 19.4762 4.35 19.1564 4.35 18.7672V17.1787Z" stroke="#4A4A4A" stroke-width="0.7"/>
</g>
<defs>
<clipPath id="clip0_753_11580">
<rect width="24" height="24" fill="white"/>
</clipPath>
</defs>
</svg>
