<svg width="24" height="24" viewBox="0 0 24 24" fill="none" xmlns="http://www.w3.org/2000/svg">
<path d="M14.5889 7.18598C14.6992 7.12974 14.8054 7.06582 14.9068 6.99469C15.7282 6.41799 15.9814 5.35744 15.4694 4.63165C14.9574 3.90586 13.8772 3.78771 13.0557 4.37003C12.2343 4.95235 11.8123 5.98196 11.3538 7.18317L14.5889 7.18598ZM4.61914 10.9275H17.7312V17.5946C17.7312 17.893 17.6126 18.1792 17.4016 18.3903C17.1906 18.6013 16.9043 18.7198 16.6059 18.7198H5.7444C5.44596 18.7198 5.15975 18.6013 4.94872 18.3903C4.73769 18.1792 4.61914 17.893 4.61914 17.5946V10.9275Z" stroke="#4A4A4A" stroke-width="0.7" stroke-linecap="round" stroke-linejoin="round"/>
<path d="M12.8207 10.9297H9.5293V18.7221H12.8207V10.9297Z" stroke="#4A4A4A" stroke-width="0.7" stroke-linecap="round" stroke-linejoin="round"/>
<path d="M7.75706 7.18598C7.64731 7.13035 7.54198 7.0664 7.44199 6.99469C6.62055 6.41799 6.36456 5.35744 6.87936 4.63165C7.39417 3.90586 8.4716 3.78771 9.29585 4.37003C10.1201 4.95235 10.5364 5.98196 10.9978 7.18317L7.75706 7.18598Z" stroke="#4A4A4A" stroke-width="0.7" stroke-linecap="round" stroke-linejoin="round"/>
<path d="M17.5031 7.17969H4.84394C4.37785 7.17969 4 7.55753 4 8.02363V10.0772C4 10.5433 4.37785 10.9212 4.84394 10.9212H17.5031C17.9691 10.9212 18.347 10.5433 18.347 10.0772V8.02363C18.347 7.55753 17.9691 7.17969 17.5031 7.17969Z" stroke="#4A4A4A" stroke-width="0.7" stroke-linecap="round" stroke-linejoin="round"/>
<path d="M13.121 7.17969H9.23047V10.9212H13.121V7.17969Z" stroke="#4A4A4A" stroke-width="0.7" stroke-linecap="round" stroke-linejoin="round"/>
</svg>
