<svg width="24" height="24" viewBox="0 0 24 24" fill="none" xmlns="http://www.w3.org/2000/svg">
<path d="M7.32126 10.7989C6.61309 10.7989 6.039 10.2248 6.039 9.51663C6.039 8.80846 6.61309 8.23438 7.32126 8.23438C8.02943 8.23438 8.60352 8.80846 8.60352 9.51663C8.60352 10.2248 8.02943 10.7989 7.32126 10.7989Z" stroke="#4A4A4A" stroke-width="0.641128" stroke-miterlimit="10" stroke-linecap="round" stroke-linejoin="round"/>
<path d="M4.50109 12.7554L10.9444 19.1827C11.4413 19.6796 12.2587 19.6796 12.7556 19.1827L17.0512 14.9032C17.548 14.4063 17.548 13.5889 17.0512 13.092L10.6239 6.69677C10.3834 6.45635 10.0629 6.32812 9.72629 6.32812H5.39867C4.69343 6.32812 4.11642 6.90514 4.11642 7.61038V11.8739C4.11642 12.1944 4.24464 12.515 4.50109 12.7554Z" stroke="#4A4A4A" stroke-width="0.641128" stroke-miterlimit="10" stroke-linecap="round" stroke-linejoin="round"/>
<path d="M15.3904 18.9078L19.6859 14.6283C20.1828 14.1314 20.1828 13.314 19.6859 12.8171L13.2586 6.42188" stroke="#4A4A4A" stroke-width="0.641128" stroke-miterlimit="10" stroke-linecap="round" stroke-linejoin="round"/>
</svg>
