<svg width="30" height="30" viewBox="0 0 30 30" fill="none" xmlns="http://www.w3.org/2000/svg">
<path d="M16.4063 4.77187H16.4062H8.4375C8.21124 4.77187 7.99424 4.86176 7.83425 5.02175C7.67426 5.18174 7.58437 5.39874 7.58437 5.625V23.4375C7.58437 23.6638 7.67426 23.8808 7.83425 24.0408C7.99424 24.2007 8.21124 24.2906 8.4375 24.2906H17.8125C19.1265 24.2905 20.3977 23.8234 21.3991 22.9727C22.4005 22.1221 23.067 20.9432 23.2796 19.6465C23.4923 18.3499 23.2371 17.0198 22.5598 15.8939C21.927 14.8419 20.9641 14.0321 19.8248 13.5879C20.5295 12.9441 21.0395 12.113 21.2936 11.1894C21.5707 10.1824 21.5302 9.11444 21.1776 8.13135C20.825 7.14826 20.1775 6.29801 19.3235 5.69672C18.4695 5.09544 17.4507 4.77245 16.4063 4.77187ZM9.29062 6.47812H16.4062C17.2989 6.47812 18.1549 6.83272 18.7861 7.46389C19.4173 8.09507 19.7719 8.95113 19.7719 9.84375C19.7719 10.7364 19.4173 11.5924 18.7861 12.2236C18.1549 12.8548 17.2989 13.2094 16.4062 13.2094H9.29062V6.47812ZM17.8125 22.5844H9.29062V14.9156H17.8125C18.8294 14.9156 19.8047 15.3196 20.5238 16.0387C21.2429 16.7578 21.6469 17.7331 21.6469 18.75C21.6469 19.7669 21.2429 20.7422 20.5238 21.4613C19.8047 22.1804 18.8294 22.5844 17.8125 22.5844Z" fill="#4A4A4A" stroke="#4A4A4A" stroke-width="0.3"/>
</svg>
