<svg width="30" height="30" viewBox="0 0 30 30" fill="none" xmlns="http://www.w3.org/2000/svg">
<path d="M27.5 11.05L27.325 10.625C27.5712 10.625 27.815 10.5765 28.0425 10.4823C28.27 10.388 28.4767 10.2499 28.6508 10.0758C28.8249 9.90172 28.963 9.69502 29.0573 9.46753C29.1515 9.24005 29.2 8.99623 29.2 8.75C29.2 8.50377 29.1515 8.25995 29.0573 8.03247C28.963 7.80498 28.8249 7.59828 28.6508 7.42417C28.4767 7.25006 28.27 7.11195 28.0425 7.01773C27.815 6.9235 27.5712 6.875 27.325 6.875H25.7875L24.3875 3.3875C24.1088 2.92714 23.7163 2.54621 23.2478 2.28133C22.7794 2.01645 22.2507 1.87653 21.7125 1.875H8.2875C7.73164 1.88057 7.18707 2.03256 6.70866 2.31566C6.23026 2.59875 5.83492 3.00294 5.5625 3.4875L4.2 6.875H2.65C2.40377 6.875 2.15995 6.9235 1.93247 7.01773C1.70498 7.11195 1.49828 7.25006 1.32417 7.42417C1.15006 7.59828 1.01195 7.80498 0.917726 8.03247C0.823498 8.25995 0.775 8.50377 0.775 8.75C0.775 8.99623 0.823498 9.24005 0.917726 9.46753C1.01195 9.69502 1.15006 9.90172 1.32417 10.0758C1.49828 10.2499 1.70498 10.388 1.93247 10.4823C2.15995 10.5765 2.40377 10.625 2.65 10.625L2.5 11.05C1.75241 11.4046 1.12072 11.964 0.678211 12.6631C0.235706 13.3623 0.000538603 14.1726 6.51427e-08 15V21.25C-0.000146969 21.9704 0.248615 22.6687 0.704184 23.2268C1.15975 23.7849 1.79415 24.1684 2.5 24.3125V26.25C2.5 26.7473 2.69754 27.2242 3.04917 27.5758C3.40081 27.9275 3.87772 28.125 4.375 28.125H5.625C6.12228 28.125 6.59919 27.9275 6.95083 27.5758C7.30246 27.2242 7.5 26.7473 7.5 26.25V24.375H22.5V26.25C22.5 26.7473 22.6975 27.2242 23.0492 27.5758C23.4008 27.9275 23.8777 28.125 24.375 28.125H25.625C26.1223 28.125 26.5992 27.9275 26.9508 27.5758C27.3025 27.2242 27.5 26.7473 27.5 26.25V24.3125C28.2059 24.1684 28.8402 23.7849 29.2958 23.2268C29.7514 22.6687 30.0001 21.9704 30 21.25V15C29.9995 14.1726 29.7643 13.3623 29.3218 12.6631C28.8793 11.964 28.2476 11.4046 27.5 11.05ZM27.35 8.125C27.4671 8.12477 27.582 8.15745 27.6814 8.21934C27.7809 8.28122 27.861 8.36981 27.9125 8.475C27.9592 8.57038 27.9809 8.6761 27.9754 8.78217C27.97 8.88825 27.9375 8.99118 27.8813 9.08125C27.825 9.17132 27.7466 9.24556 27.6537 9.29696C27.5607 9.34835 27.4562 9.37521 27.35 9.375H26.7875L26.2875 8.125H27.35ZM4.2 10.25L5.2 7.75L6.675 4C6.84719 3.72906 7.08563 3.50652 7.36779 3.35341C7.64995 3.2003 7.96649 3.12169 8.2875 3.125H21.7125C22.0207 3.12351 22.3245 3.19801 22.597 3.34191C22.8696 3.48581 23.1024 3.69466 23.275 3.95L25.95 10.625H4.05L4.2 10.25ZM2.65 9.375C2.48424 9.375 2.32527 9.30915 2.20806 9.19194C2.09085 9.07473 2.025 8.91576 2.025 8.75C2.025 8.58424 2.09085 8.42527 2.20806 8.30806C2.32527 8.19085 2.48424 8.125 2.65 8.125H3.75L3.25 9.375H2.65ZM6.25 26.25C6.25 26.4158 6.18415 26.5747 6.06694 26.6919C5.94973 26.8092 5.79076 26.875 5.625 26.875H4.375C4.20924 26.875 4.05027 26.8092 3.93306 26.6919C3.81585 26.5747 3.75 26.4158 3.75 26.25V24.375H6.25V26.25ZM9.5125 23.125L10.2375 19.375H19.7875L20.5125 23.125H9.5125ZM26.25 26.25C26.25 26.4158 26.1842 26.5747 26.0669 26.6919C25.9497 26.8092 25.7908 26.875 25.625 26.875H24.375C24.2092 26.875 24.0503 26.8092 23.9331 26.6919C23.8158 26.5747 23.75 26.4158 23.75 26.25V24.375H26.25V26.25ZM28.75 21.25C28.75 21.7473 28.5525 22.2242 28.2008 22.5758C27.8492 22.9275 27.3723 23.125 26.875 23.125H21.7625L20.9 18.6375C20.8737 18.494 20.7981 18.3643 20.6863 18.2707C20.5744 18.1771 20.4334 18.1255 20.2875 18.125H9.7125C9.56665 18.1255 9.42558 18.1771 9.31372 18.2707C9.20186 18.3643 9.12625 18.494 9.1 18.6375L8.2375 23.125H3.125C2.62772 23.125 2.15081 22.9275 1.79917 22.5758C1.44754 22.2242 1.25 21.7473 1.25 21.25V15C1.25 14.1712 1.57924 13.3763 2.16529 12.7903C2.75134 12.2042 3.5462 11.875 4.375 11.875H25.625C26.4538 11.875 27.2487 12.2042 27.8347 12.7903C28.4208 13.3763 28.75 14.1712 28.75 15V21.25ZM8.125 13.125H4.375C3.87772 13.125 3.40081 13.3225 3.04917 13.6742C2.69754 14.0258 2.5 14.5027 2.5 15V16.25C2.5 16.4158 2.56585 16.5747 2.68306 16.6919C2.80027 16.8092 2.95924 16.875 3.125 16.875H8.125C8.29076 16.875 8.44973 16.8092 8.56694 16.6919C8.68415 16.5747 8.75 16.4158 8.75 16.25V13.75C8.75 13.5842 8.68415 13.4253 8.56694 13.3081C8.44973 13.1908 8.29076 13.125 8.125 13.125ZM7.5 15.625H3.75V15C3.75 14.8342 3.81585 14.6753 3.93306 14.5581C4.05027 14.4408 4.20924 14.375 4.375 14.375H7.5V15.625ZM4.375 18.125C4.00416 18.125 3.64165 18.235 3.33331 18.441C3.02496 18.647 2.78464 18.9399 2.64273 19.2825C2.50081 19.6251 2.46368 20.0021 2.53603 20.3658C2.60838 20.7295 2.78695 21.0636 3.04917 21.3258C3.3114 21.588 3.64549 21.7666 4.00921 21.839C4.37292 21.9113 4.74992 21.8742 5.09253 21.7323C5.43514 21.5904 5.72798 21.35 5.93401 21.0417C6.14003 20.7334 6.25 20.3708 6.25 20C6.25 19.5027 6.05246 19.0258 5.70083 18.6742C5.34919 18.3225 4.87228 18.125 4.375 18.125ZM4.375 20.625C4.25139 20.625 4.13055 20.5883 4.02777 20.5197C3.92499 20.451 3.84488 20.3534 3.79758 20.2392C3.75027 20.125 3.73789 19.9993 3.76201 19.8781C3.78612 19.7568 3.84565 19.6455 3.93306 19.5581C4.02047 19.4706 4.13183 19.4111 4.25307 19.387C4.37431 19.3629 4.49997 19.3753 4.61418 19.4226C4.72838 19.4699 4.82599 19.55 4.89467 19.6528C4.96334 19.7555 5 19.8764 5 20C5 20.1658 4.93415 20.3247 4.81694 20.4419C4.69973 20.5592 4.54076 20.625 4.375 20.625ZM18.125 14.375H13.125C12.9592 14.375 12.8003 14.4408 12.6831 14.5581C12.5658 14.6753 12.5 14.8342 12.5 15C12.5 15.1658 12.5658 15.3247 12.6831 15.4419C12.8003 15.5592 12.9592 15.625 13.125 15.625H18.125C18.2908 15.625 18.4497 15.5592 18.5669 15.4419C18.6842 15.3247 18.75 15.1658 18.75 15C18.75 14.8342 18.6842 14.6753 18.5669 14.5581C18.4497 14.4408 18.2908 14.375 18.125 14.375ZM25.625 13.125H21.875C21.7092 13.125 21.5503 13.1908 21.4331 13.3081C21.3158 13.4253 21.25 13.5842 21.25 13.75V16.25C21.25 16.4158 21.3158 16.5747 21.4331 16.6919C21.5503 16.8092 21.7092 16.875 21.875 16.875H26.875C27.0408 16.875 27.1997 16.8092 27.3169 16.6919C27.4342 16.5747 27.5 16.4158 27.5 16.25V15C27.5 14.5027 27.3025 14.0258 26.9508 13.6742C26.5992 13.3225 26.1223 13.125 25.625 13.125ZM26.25 15.625H22.5V14.375H25.625C25.7908 14.375 25.9497 14.4408 26.0669 14.5581C26.1842 14.6753 26.25 14.8342 26.25 15V15.625ZM25.625 18.125C25.2542 18.125 24.8916 18.235 24.5833 18.441C24.275 18.647 24.0346 18.9399 23.8927 19.2825C23.7508 19.6251 23.7137 20.0021 23.786 20.3658C23.8584 20.7295 24.037 21.0636 24.2992 21.3258C24.5614 21.588 24.8955 21.7666 25.2592 21.839C25.6229 21.9113 25.9999 21.8742 26.3425 21.7323C26.6851 21.5904 26.978 21.35 27.184 21.0417C27.39 20.7334 27.5 20.3708 27.5 20C27.5 19.5027 27.3025 19.0258 26.9508 18.6742C26.5992 18.3225 26.1223 18.125 25.625 18.125ZM25.625 20.625C25.5014 20.625 25.3806 20.5883 25.2778 20.5197C25.175 20.451 25.0949 20.3534 25.0476 20.2392C25.0003 20.125 24.9879 19.9993 25.012 19.8781C25.0361 19.7568 25.0956 19.6455 25.1831 19.5581C25.2705 19.4706 25.3818 19.4111 25.5031 19.387C25.6243 19.3629 25.75 19.3753 25.8642 19.4226C25.9784 19.4699 26.076 19.55 26.1447 19.6528C26.2133 19.7555 26.25 19.8764 26.25 20C26.25 20.1658 26.1842 20.3247 26.0669 20.4419C25.9497 20.5592 25.7908 20.625 25.625 20.625Z" fill="#4A4A4A"/>
</svg>
