<svg width="30" height="30" viewBox="0 0 30 30" fill="none" xmlns="http://www.w3.org/2000/svg">
<path d="M13.5698 2.62707C13.8652 2.32956 14.2657 2.16006 14.6849 2.15508C15.5462 2.1575 16.2457 2.88019 16.2457 3.74615V4.60162C16.2457 5.01799 16.0803 5.41731 15.7859 5.71172C15.4915 6.00614 15.0922 6.17154 14.6758 6.17154C14.2594 6.17154 13.8601 6.00614 13.5657 5.71172C13.2713 5.41731 13.1059 5.01794 13.1059 4.60156V3.74629C13.1076 3.32678 13.2743 2.92477 13.5698 2.62707ZM17.3832 4.60156V3.74609C17.3832 3.02804 17.098 2.3394 16.5902 1.83166C16.0825 1.32392 15.3938 1.03867 14.6758 1.03867C13.9577 1.03867 13.2691 1.32392 12.7613 1.83166C12.2536 2.3394 11.9684 3.02804 11.9684 3.74609V4.60156C11.9684 5.31961 12.2536 6.00826 12.7613 6.516C13.2691 7.02374 13.9577 7.30898 14.6758 7.30898C15.3938 7.30898 16.0825 7.02374 16.5902 6.516C17.098 6.00826 17.3832 5.31961 17.3832 4.60156Z" fill="#4A4A4A" stroke="#4A4A4A" stroke-width="0.2"/>
<mask id="path-2-outside-1_446_1598" maskUnits="userSpaceOnUse" x="8" y="6.21094" width="13" height="24" fill="black">
<rect fill="white" x="8" y="6.21094" width="13" height="24"/>
<path d="M11.68 7.21096C11.3271 7.20956 10.9773 7.27817 10.6511 7.41282C10.3248 7.54747 10.0285 7.74548 9.77924 7.99541C9.53 8.24534 9.33281 8.54221 9.19906 8.86885C9.06532 9.19549 8.99768 9.54541 9.00006 9.89836C9.00006 9.98039 9.02192 10.0624 9.02192 10.1441V16.6949C9.01961 16.9102 9.05996 17.1239 9.14064 17.3236C9.22132 17.5232 9.34073 17.7049 9.49199 17.8582C9.64324 18.0115 9.82335 18.1333 10.0219 18.2167C10.2205 18.3 10.4336 18.3432 10.6489 18.3438L10.6679 18.3431C10.946 18.3397 11.2186 18.2643 11.4589 18.1241L11.7503 27.9311C11.7612 28.2773 11.8753 28.6123 12.0778 28.8932C12.2803 29.1741 12.5621 29.3882 12.887 29.508C13.2119 29.6278 13.5652 29.6479 13.9017 29.5656C14.2381 29.4834 14.5423 29.3026 14.7753 29.0464C14.9391 29.221 15.1372 29.3597 15.3573 29.454C15.5774 29.5482 15.8146 29.5958 16.0539 29.5938C16.5062 29.5975 16.942 29.4242 17.2682 29.1109C17.5945 28.7977 17.7853 28.3693 17.8 27.9172L18.0909 18.1316C18.3394 18.268 18.6182 18.3398 18.9017 18.3404C19.3402 18.3412 19.7611 18.1684 20.0727 17.8599C20.3843 17.5514 20.5612 17.1322 20.5649 16.6937V10.1442C20.6227 9.43747 20.4017 8.73619 19.9493 8.19026C19.4968 7.64433 18.8488 7.29706 18.1436 7.22268C18.0538 7.2136 17.9493 7.21096 17.8592 7.21096H16.7332C16.6143 7.21025 16.4995 7.25498 16.4125 7.336L14.7752 8.87115L13.2019 7.34186C13.1142 7.25727 12.9969 7.2103 12.875 7.21096H11.68ZM16.0484 28.6778C15.833 28.6777 15.6265 28.5926 15.4737 28.4409C15.3209 28.2891 15.2344 28.0831 15.2329 27.8678V18.2075C15.2329 18.0832 15.1835 17.9639 15.0956 17.876C15.0077 17.7881 14.8884 17.7387 14.7641 17.7387C14.6398 17.7387 14.5206 17.7881 14.4326 17.876C14.3447 17.9639 14.2954 18.0832 14.2954 18.2075V27.8678C14.2958 27.9739 14.2754 28.079 14.2352 28.1771C14.195 28.2752 14.1359 28.3645 14.0612 28.4397C13.9865 28.5149 13.8976 28.5747 13.7998 28.6155C13.7019 28.6564 13.597 28.6775 13.4909 28.6778C13.2832 28.6817 13.0823 28.6038 12.9314 28.461C12.7805 28.3181 12.6918 28.1217 12.6844 27.9141L12.3519 16.6446H17.1986L16.8606 27.9111C16.8525 28.1198 16.7629 28.317 16.611 28.4603C16.4592 28.6037 16.2572 28.6817 16.0484 28.6778ZM14.4429 9.85652C14.4458 9.8594 14.4488 9.8608 14.4519 9.86356C14.4585 9.86941 14.4651 9.87527 14.472 9.88067C14.4772 9.88506 14.4826 9.88899 14.4881 9.89309C14.4952 9.89848 14.5024 9.90352 14.5097 9.90838C14.5155 9.91219 14.5211 9.91576 14.5269 9.91928C14.5342 9.92373 14.5417 9.92801 14.5492 9.93205C14.5551 9.93527 14.5615 9.93832 14.5677 9.94131C14.5752 9.94488 14.5828 9.94828 14.5904 9.95145C14.5969 9.95414 14.6034 9.95666 14.61 9.95906C14.6176 9.96182 14.6253 9.9644 14.633 9.96674C14.6398 9.96879 14.6466 9.97067 14.6535 9.9726C14.6612 9.97453 14.6689 9.97635 14.6769 9.97793C14.6849 9.97951 14.6908 9.98057 14.6978 9.98162C14.7049 9.98268 14.7136 9.98391 14.7213 9.98473C14.7282 9.98543 14.7352 9.98596 14.7421 9.98637C14.7502 9.98684 14.7582 9.98713 14.7664 9.98719C14.7732 9.98719 14.78 9.98719 14.7868 9.98719C14.795 9.98684 14.8032 9.98637 14.8114 9.98566C14.8181 9.98502 14.8248 9.98426 14.8314 9.98338C14.8397 9.98233 14.848 9.98104 14.8562 9.97951C14.8627 9.97828 14.8692 9.97688 14.8757 9.97535C14.8839 9.97348 14.892 9.97137 14.9001 9.96908C14.9065 9.96721 14.913 9.96516 14.9194 9.96322C14.9273 9.96059 14.9351 9.95772 14.9428 9.95461C14.9493 9.95209 14.9556 9.94934 14.962 9.94647C14.9695 9.94307 14.9769 9.93955 14.9843 9.93574C14.9907 9.93246 14.997 9.92895 15.0033 9.92531C15.0096 9.92168 15.0173 9.91705 15.0242 9.9126C15.0311 9.90815 15.0365 9.90428 15.0426 9.89988C15.0487 9.89549 15.0558 9.89022 15.0623 9.88506C15.0687 9.8799 15.074 9.87545 15.0795 9.87041C15.0831 9.86725 15.0869 9.86637 15.0904 9.86309L16.9187 8.14846H17.8592C18.1054 8.14581 18.3494 8.19522 18.5751 8.29343C18.8009 8.39165 19.0034 8.53646 19.1693 8.71837C19.3352 8.90029 19.4607 9.1152 19.5378 9.34904C19.6149 9.58287 19.6416 9.83035 19.6164 10.0753C19.6148 10.091 19.6274 10.1058 19.6274 10.1215V16.6937C19.622 16.8844 19.5425 17.0654 19.4057 17.1984C19.2689 17.3313 19.0857 17.4057 18.895 17.4057C18.7042 17.4057 18.521 17.3313 18.3842 17.1984C18.2475 17.0654 18.1679 16.8844 18.1625 16.6937V15.2628L18.1693 15.0351C18.1703 15.0027 18.1625 14.9709 18.1625 14.9402V12.2947C18.1625 12.1704 18.1132 12.0512 18.0252 11.9633C17.9373 11.8754 17.8181 11.826 17.6938 11.826C17.5695 11.826 17.4502 11.8754 17.3623 11.9633C17.2744 12.0512 17.225 12.1704 17.225 12.2947V15.2484L17.2264 15.7071H12.324L12.307 15.0215C12.3063 14.9998 12.3032 14.9646 12.3032 14.9437V12.2953C12.3032 12.1709 12.2538 12.0517 12.1659 11.9638C12.078 11.8759 11.9587 11.8265 11.8344 11.8265C11.7101 11.8265 11.5909 11.8759 11.503 11.9638C11.4151 12.0517 11.3657 12.1709 11.3657 12.2953V16.662C11.3657 17.067 11.0446 17.4063 10.6594 17.4063H10.6491C10.5573 17.4064 10.4663 17.388 10.3818 17.3521C10.2972 17.3163 10.2207 17.2637 10.1569 17.1976C10.0922 17.1311 10.0414 17.0524 10.0075 16.966C9.97354 16.8796 9.95721 16.7874 9.95942 16.6946V10.1215C9.95942 10.1058 9.94805 10.09 9.94647 10.0744C9.94061 10.0158 9.93229 9.95631 9.93229 9.89754C9.93179 9.66782 9.97664 9.44025 10.0643 9.2279C10.1519 9.01555 10.2806 8.82259 10.443 8.66009C10.6054 8.49759 10.7983 8.36875 11.0105 8.28095C11.2228 8.19315 11.4504 8.14813 11.6801 8.14846H12.6847L14.4429 9.85652Z"/>
</mask>
<path d="M11.68 7.21096C11.3271 7.20956 10.9773 7.27817 10.6511 7.41282C10.3248 7.54747 10.0285 7.74548 9.77924 7.99541C9.53 8.24534 9.33281 8.54221 9.19906 8.86885C9.06532 9.19549 8.99768 9.54541 9.00006 9.89836C9.00006 9.98039 9.02192 10.0624 9.02192 10.1441V16.6949C9.01961 16.9102 9.05996 17.1239 9.14064 17.3236C9.22132 17.5232 9.34073 17.7049 9.49199 17.8582C9.64324 18.0115 9.82335 18.1333 10.0219 18.2167C10.2205 18.3 10.4336 18.3432 10.6489 18.3438L10.6679 18.3431C10.946 18.3397 11.2186 18.2643 11.4589 18.1241L11.7503 27.9311C11.7612 28.2773 11.8753 28.6123 12.0778 28.8932C12.2803 29.1741 12.5621 29.3882 12.887 29.508C13.2119 29.6278 13.5652 29.6479 13.9017 29.5656C14.2381 29.4834 14.5423 29.3026 14.7753 29.0464C14.9391 29.221 15.1372 29.3597 15.3573 29.454C15.5774 29.5482 15.8146 29.5958 16.0539 29.5938C16.5062 29.5975 16.942 29.4242 17.2682 29.1109C17.5945 28.7977 17.7853 28.3693 17.8 27.9172L18.0909 18.1316C18.3394 18.268 18.6182 18.3398 18.9017 18.3404C19.3402 18.3412 19.7611 18.1684 20.0727 17.8599C20.3843 17.5514 20.5612 17.1322 20.5649 16.6937V10.1442C20.6227 9.43747 20.4017 8.73619 19.9493 8.19026C19.4968 7.64433 18.8488 7.29706 18.1436 7.22268C18.0538 7.2136 17.9493 7.21096 17.8592 7.21096H16.7332C16.6143 7.21025 16.4995 7.25498 16.4125 7.336L14.7752 8.87115L13.2019 7.34186C13.1142 7.25727 12.9969 7.2103 12.875 7.21096H11.68ZM16.0484 28.6778C15.833 28.6777 15.6265 28.5926 15.4737 28.4409C15.3209 28.2891 15.2344 28.0831 15.2329 27.8678V18.2075C15.2329 18.0832 15.1835 17.9639 15.0956 17.876C15.0077 17.7881 14.8884 17.7387 14.7641 17.7387C14.6398 17.7387 14.5206 17.7881 14.4326 17.876C14.3447 17.9639 14.2954 18.0832 14.2954 18.2075V27.8678C14.2958 27.9739 14.2754 28.079 14.2352 28.1771C14.195 28.2752 14.1359 28.3645 14.0612 28.4397C13.9865 28.5149 13.8976 28.5747 13.7998 28.6155C13.7019 28.6564 13.597 28.6775 13.4909 28.6778C13.2832 28.6817 13.0823 28.6038 12.9314 28.461C12.7805 28.3181 12.6918 28.1217 12.6844 27.9141L12.3519 16.6446H17.1986L16.8606 27.9111C16.8525 28.1198 16.7629 28.317 16.611 28.4603C16.4592 28.6037 16.2572 28.6817 16.0484 28.6778ZM14.4429 9.85652C14.4458 9.8594 14.4488 9.8608 14.4519 9.86356C14.4585 9.86941 14.4651 9.87527 14.472 9.88067C14.4772 9.88506 14.4826 9.88899 14.4881 9.89309C14.4952 9.89848 14.5024 9.90352 14.5097 9.90838C14.5155 9.91219 14.5211 9.91576 14.5269 9.91928C14.5342 9.92373 14.5417 9.92801 14.5492 9.93205C14.5551 9.93527 14.5615 9.93832 14.5677 9.94131C14.5752 9.94488 14.5828 9.94828 14.5904 9.95145C14.5969 9.95414 14.6034 9.95666 14.61 9.95906C14.6176 9.96182 14.6253 9.9644 14.633 9.96674C14.6398 9.96879 14.6466 9.97067 14.6535 9.9726C14.6612 9.97453 14.6689 9.97635 14.6769 9.97793C14.6849 9.97951 14.6908 9.98057 14.6978 9.98162C14.7049 9.98268 14.7136 9.98391 14.7213 9.98473C14.7282 9.98543 14.7352 9.98596 14.7421 9.98637C14.7502 9.98684 14.7582 9.98713 14.7664 9.98719C14.7732 9.98719 14.78 9.98719 14.7868 9.98719C14.795 9.98684 14.8032 9.98637 14.8114 9.98566C14.8181 9.98502 14.8248 9.98426 14.8314 9.98338C14.8397 9.98233 14.848 9.98104 14.8562 9.97951C14.8627 9.97828 14.8692 9.97688 14.8757 9.97535C14.8839 9.97348 14.892 9.97137 14.9001 9.96908C14.9065 9.96721 14.913 9.96516 14.9194 9.96322C14.9273 9.96059 14.9351 9.95772 14.9428 9.95461C14.9493 9.95209 14.9556 9.94934 14.962 9.94647C14.9695 9.94307 14.9769 9.93955 14.9843 9.93574C14.9907 9.93246 14.997 9.92895 15.0033 9.92531C15.0096 9.92168 15.0173 9.91705 15.0242 9.9126C15.0311 9.90815 15.0365 9.90428 15.0426 9.89988C15.0487 9.89549 15.0558 9.89022 15.0623 9.88506C15.0687 9.8799 15.074 9.87545 15.0795 9.87041C15.0831 9.86725 15.0869 9.86637 15.0904 9.86309L16.9187 8.14846H17.8592C18.1054 8.14581 18.3494 8.19522 18.5751 8.29343C18.8009 8.39165 19.0034 8.53646 19.1693 8.71837C19.3352 8.90029 19.4607 9.1152 19.5378 9.34904C19.6149 9.58287 19.6416 9.83035 19.6164 10.0753C19.6148 10.091 19.6274 10.1058 19.6274 10.1215V16.6937C19.622 16.8844 19.5425 17.0654 19.4057 17.1984C19.2689 17.3313 19.0857 17.4057 18.895 17.4057C18.7042 17.4057 18.521 17.3313 18.3842 17.1984C18.2475 17.0654 18.1679 16.8844 18.1625 16.6937V15.2628L18.1693 15.0351C18.1703 15.0027 18.1625 14.9709 18.1625 14.9402V12.2947C18.1625 12.1704 18.1132 12.0512 18.0252 11.9633C17.9373 11.8754 17.8181 11.826 17.6938 11.826C17.5695 11.826 17.4502 11.8754 17.3623 11.9633C17.2744 12.0512 17.225 12.1704 17.225 12.2947V15.2484L17.2264 15.7071H12.324L12.307 15.0215C12.3063 14.9998 12.3032 14.9646 12.3032 14.9437V12.2953C12.3032 12.1709 12.2538 12.0517 12.1659 11.9638C12.078 11.8759 11.9587 11.8265 11.8344 11.8265C11.7101 11.8265 11.5909 11.8759 11.503 11.9638C11.4151 12.0517 11.3657 12.1709 11.3657 12.2953V16.662C11.3657 17.067 11.0446 17.4063 10.6594 17.4063H10.6491C10.5573 17.4064 10.4663 17.388 10.3818 17.3521C10.2972 17.3163 10.2207 17.2637 10.1569 17.1976C10.0922 17.1311 10.0414 17.0524 10.0075 16.966C9.97354 16.8796 9.95721 16.7874 9.95942 16.6946V10.1215C9.95942 10.1058 9.94805 10.09 9.94647 10.0744C9.94061 10.0158 9.93229 9.95631 9.93229 9.89754C9.93179 9.66782 9.97664 9.44025 10.0643 9.2279C10.1519 9.01555 10.2806 8.82259 10.443 8.66009C10.6054 8.49759 10.7983 8.36875 11.0105 8.28095C11.2228 8.19315 11.4504 8.14813 11.6801 8.14846H12.6847L14.4429 9.85652Z" fill="#4A4A4A"/>
<path d="M11.68 7.21096C11.3271 7.20956 10.9773 7.27817 10.6511 7.41282C10.3248 7.54747 10.0285 7.74548 9.77924 7.99541C9.53 8.24534 9.33281 8.54221 9.19906 8.86885C9.06532 9.19549 8.99768 9.54541 9.00006 9.89836C9.00006 9.98039 9.02192 10.0624 9.02192 10.1441V16.6949C9.01961 16.9102 9.05996 17.1239 9.14064 17.3236C9.22132 17.5232 9.34073 17.7049 9.49199 17.8582C9.64324 18.0115 9.82335 18.1333 10.0219 18.2167C10.2205 18.3 10.4336 18.3432 10.6489 18.3438L10.6679 18.3431C10.946 18.3397 11.2186 18.2643 11.4589 18.1241L11.7503 27.9311C11.7612 28.2773 11.8753 28.6123 12.0778 28.8932C12.2803 29.1741 12.5621 29.3882 12.887 29.508C13.2119 29.6278 13.5652 29.6479 13.9017 29.5656C14.2381 29.4834 14.5423 29.3026 14.7753 29.0464C14.9391 29.221 15.1372 29.3597 15.3573 29.454C15.5774 29.5482 15.8146 29.5958 16.0539 29.5938C16.5062 29.5975 16.942 29.4242 17.2682 29.1109C17.5945 28.7977 17.7853 28.3693 17.8 27.9172L18.0909 18.1316C18.3394 18.268 18.6182 18.3398 18.9017 18.3404C19.3402 18.3412 19.7611 18.1684 20.0727 17.8599C20.3843 17.5514 20.5612 17.1322 20.5649 16.6937V10.1442C20.6227 9.43747 20.4017 8.73619 19.9493 8.19026C19.4968 7.64433 18.8488 7.29706 18.1436 7.22268C18.0538 7.2136 17.9493 7.21096 17.8592 7.21096H16.7332C16.6143 7.21025 16.4995 7.25498 16.4125 7.336L14.7752 8.87115L13.2019 7.34186C13.1142 7.25727 12.9969 7.2103 12.875 7.21096H11.68ZM16.0484 28.6778C15.833 28.6777 15.6265 28.5926 15.4737 28.4409C15.3209 28.2891 15.2344 28.0831 15.2329 27.8678V18.2075C15.2329 18.0832 15.1835 17.9639 15.0956 17.876C15.0077 17.7881 14.8884 17.7387 14.7641 17.7387C14.6398 17.7387 14.5206 17.7881 14.4326 17.876C14.3447 17.9639 14.2954 18.0832 14.2954 18.2075V27.8678C14.2958 27.9739 14.2754 28.079 14.2352 28.1771C14.195 28.2752 14.1359 28.3645 14.0612 28.4397C13.9865 28.5149 13.8976 28.5747 13.7998 28.6155C13.7019 28.6564 13.597 28.6775 13.4909 28.6778C13.2832 28.6817 13.0823 28.6038 12.9314 28.461C12.7805 28.3181 12.6918 28.1217 12.6844 27.9141L12.3519 16.6446H17.1986L16.8606 27.9111C16.8525 28.1198 16.7629 28.317 16.611 28.4603C16.4592 28.6037 16.2572 28.6817 16.0484 28.6778ZM14.4429 9.85652C14.4458 9.8594 14.4488 9.8608 14.4519 9.86356C14.4585 9.86941 14.4651 9.87527 14.472 9.88067C14.4772 9.88506 14.4826 9.88899 14.4881 9.89309C14.4952 9.89848 14.5024 9.90352 14.5097 9.90838C14.5155 9.91219 14.5211 9.91576 14.5269 9.91928C14.5342 9.92373 14.5417 9.92801 14.5492 9.93205C14.5551 9.93527 14.5615 9.93832 14.5677 9.94131C14.5752 9.94488 14.5828 9.94828 14.5904 9.95145C14.5969 9.95414 14.6034 9.95666 14.61 9.95906C14.6176 9.96182 14.6253 9.9644 14.633 9.96674C14.6398 9.96879 14.6466 9.97067 14.6535 9.9726C14.6612 9.97453 14.6689 9.97635 14.6769 9.97793C14.6849 9.97951 14.6908 9.98057 14.6978 9.98162C14.7049 9.98268 14.7136 9.98391 14.7213 9.98473C14.7282 9.98543 14.7352 9.98596 14.7421 9.98637C14.7502 9.98684 14.7582 9.98713 14.7664 9.98719C14.7732 9.98719 14.78 9.98719 14.7868 9.98719C14.795 9.98684 14.8032 9.98637 14.8114 9.98566C14.8181 9.98502 14.8248 9.98426 14.8314 9.98338C14.8397 9.98233 14.848 9.98104 14.8562 9.97951C14.8627 9.97828 14.8692 9.97688 14.8757 9.97535C14.8839 9.97348 14.892 9.97137 14.9001 9.96908C14.9065 9.96721 14.913 9.96516 14.9194 9.96322C14.9273 9.96059 14.9351 9.95772 14.9428 9.95461C14.9493 9.95209 14.9556 9.94934 14.962 9.94647C14.9695 9.94307 14.9769 9.93955 14.9843 9.93574C14.9907 9.93246 14.997 9.92895 15.0033 9.92531C15.0096 9.92168 15.0173 9.91705 15.0242 9.9126C15.0311 9.90815 15.0365 9.90428 15.0426 9.89988C15.0487 9.89549 15.0558 9.89022 15.0623 9.88506C15.0687 9.8799 15.074 9.87545 15.0795 9.87041C15.0831 9.86725 15.0869 9.86637 15.0904 9.86309L16.9187 8.14846H17.8592C18.1054 8.14581 18.3494 8.19522 18.5751 8.29343C18.8009 8.39165 19.0034 8.53646 19.1693 8.71837C19.3352 8.90029 19.4607 9.1152 19.5378 9.34904C19.6149 9.58287 19.6416 9.83035 19.6164 10.0753C19.6148 10.091 19.6274 10.1058 19.6274 10.1215V16.6937C19.622 16.8844 19.5425 17.0654 19.4057 17.1984C19.2689 17.3313 19.0857 17.4057 18.895 17.4057C18.7042 17.4057 18.521 17.3313 18.3842 17.1984C18.2475 17.0654 18.1679 16.8844 18.1625 16.6937V15.2628L18.1693 15.0351C18.1703 15.0027 18.1625 14.9709 18.1625 14.9402V12.2947C18.1625 12.1704 18.1132 12.0512 18.0252 11.9633C17.9373 11.8754 17.8181 11.826 17.6938 11.826C17.5695 11.826 17.4502 11.8754 17.3623 11.9633C17.2744 12.0512 17.225 12.1704 17.225 12.2947V15.2484L17.2264 15.7071H12.324L12.307 15.0215C12.3063 14.9998 12.3032 14.9646 12.3032 14.9437V12.2953C12.3032 12.1709 12.2538 12.0517 12.1659 11.9638C12.078 11.8759 11.9587 11.8265 11.8344 11.8265C11.7101 11.8265 11.5909 11.8759 11.503 11.9638C11.4151 12.0517 11.3657 12.1709 11.3657 12.2953V16.662C11.3657 17.067 11.0446 17.4063 10.6594 17.4063H10.6491C10.5573 17.4064 10.4663 17.388 10.3818 17.3521C10.2972 17.3163 10.2207 17.2637 10.1569 17.1976C10.0922 17.1311 10.0414 17.0524 10.0075 16.966C9.97354 16.8796 9.95721 16.7874 9.95942 16.6946V10.1215C9.95942 10.1058 9.94805 10.09 9.94647 10.0744C9.94061 10.0158 9.93229 9.95631 9.93229 9.89754C9.93179 9.66782 9.97664 9.44025 10.0643 9.2279C10.1519 9.01555 10.2806 8.82259 10.443 8.66009C10.6054 8.49759 10.7983 8.36875 11.0105 8.28095C11.2228 8.19315 11.4504 8.14813 11.6801 8.14846H12.6847L14.4429 9.85652Z" stroke="#4A4A4A" stroke-width="0.4" mask="url(#path-2-outside-1_446_1598)"/>
</svg>
