<svg width="30" height="30" viewBox="0 0 30 30" fill="none" xmlns="http://www.w3.org/2000/svg">
<g clip-path="url(#clip0_446_1602)">
<path d="M0.9375 18.5635C1.18614 18.5635 1.4246 18.6622 1.60041 18.8381C1.77623 19.0139 1.875 19.2523 1.875 19.501V24.1885C1.875 24.6858 2.07254 25.1627 2.42417 25.5143C2.77581 25.8659 3.25272 26.0635 3.75 26.0635H26.25C26.7473 26.0635 27.2242 25.8659 27.5758 25.5143C27.9275 25.1627 28.125 24.6858 28.125 24.1885V19.501C28.125 19.2523 28.2238 19.0139 28.3996 18.8381C28.5754 18.6622 28.8139 18.5635 29.0625 18.5635C29.3111 18.5635 29.5496 18.6622 29.7254 18.8381C29.9012 19.0139 30 19.2523 30 19.501V24.1885C30 25.183 29.6049 26.1369 28.9016 26.8401C28.1984 27.5434 27.2446 27.9385 26.25 27.9385H3.75C2.75544 27.9385 1.80161 27.5434 1.09835 26.8401C0.395088 26.1369 0 25.183 0 24.1885V19.501C0 19.2523 0.0987721 19.0139 0.274587 18.8381C0.450403 18.6622 0.68886 18.5635 0.9375 18.5635Z" fill="#4A4A4A"/>
<path d="M14.3374 22.2262C14.4245 22.3136 14.528 22.3828 14.6419 22.4301C14.7558 22.4773 14.8779 22.5017 15.0012 22.5017C15.1245 22.5017 15.2466 22.4773 15.3605 22.4301C15.4744 22.3828 15.5778 22.3136 15.6649 22.2262L21.2899 16.6012C21.466 16.4252 21.5649 16.1865 21.5649 15.9375C21.5649 15.6885 21.466 15.4498 21.2899 15.2737C21.1139 15.0977 20.8751 14.9988 20.6262 14.9988C20.3772 14.9988 20.1385 15.0977 19.9624 15.2737L15.9387 19.2994V2.8125C15.9387 2.56386 15.8399 2.3254 15.6641 2.14959C15.4883 1.97377 15.2498 1.875 15.0012 1.875C14.7525 1.875 14.5141 1.97377 14.3383 2.14959C14.1625 2.3254 14.0637 2.56386 14.0637 2.8125V19.2994L10.0399 15.2737C9.8639 15.0977 9.62514 14.9988 9.37618 14.9988C9.12723 14.9988 8.88847 15.0977 8.71243 15.2737C8.5364 15.4498 8.4375 15.6885 8.4375 15.9375C8.4375 16.1865 8.5364 16.4252 8.71243 16.6012L14.3374 22.2262Z" fill="#4A4A4A"/>
</g>
<defs>
<clipPath id="clip0_446_1602">
<rect width="30" height="30" fill="white"/>
</clipPath>
</defs>
</svg>
