<svg width="512" height="512" viewBox="0 0 512 512" fill="none" xmlns="http://www.w3.org/2000/svg">
<path d="M259.169 351.955C250.698 352.161 242.492 348.999 236.349 343.162L71.8511 187.79C66.4362 181.821 63.4733 174.028 63.5546 165.969C63.6359 157.909 66.7552 150.178 72.2894 144.318C77.8236 138.459 85.3649 134.904 93.4064 134.363C101.448 133.823 109.397 136.336 115.666 141.402L256.965 274.706L390.434 133.562C396.404 128.147 404.197 125.185 412.256 125.266C420.315 125.347 428.047 128.467 433.906 134.001C439.766 139.535 443.321 147.076 443.861 155.118C444.402 163.159 441.888 171.109 436.823 177.377L281.451 341.875C275.651 348.053 267.638 351.678 259.169 351.955Z" fill="#F47421"/>
</svg>
