<svg width="11" height="7" viewBox="0 0 11 7" fill="none" xmlns="http://www.w3.org/2000/svg">
<path d="M6.00019 6.99994C5.86858 7.0007 5.73812 6.97548 5.61628 6.92571C5.49444 6.87595 5.38363 6.80262 5.29019 6.70994L1.29019 2.70994C1.10188 2.52164 0.996094 2.26624 0.996094 1.99994C0.996094 1.73364 1.10188 1.47824 1.29019 1.28994C1.47849 1.10164 1.73388 0.99585 2.00019 0.99585C2.26649 0.99585 2.52188 1.10164 2.71019 1.28994L6.00019 4.58994L9.29019 1.29994C9.48149 1.13611 9.72756 1.05051 9.97924 1.06023C10.2309 1.06995 10.4697 1.17428 10.6477 1.35238C10.8258 1.53047 10.9302 1.76921 10.9399 2.02089C10.9496 2.27256 10.864 2.51864 10.7002 2.70994L6.70019 6.70994C6.51392 6.89469 6.26253 6.99884 6.00019 6.99994Z" fill="black"/>
</svg>
