<svg width="30" height="30" viewBox="0 0 30 30" fill="none" xmlns="http://www.w3.org/2000/svg">
<path d="M14.9801 6.5625C10.4133 6.5625 5.72877 9.20566 2.04088 14.492C1.93561 14.6445 1.87792 14.8249 1.87511 15.0102C1.87229 15.1955 1.92447 15.3775 2.02506 15.5332C4.85865 19.9688 9.48053 23.4375 14.9801 23.4375C20.42 23.4375 25.1368 19.9582 27.9756 15.5127C28.0739 15.3601 28.1261 15.1824 28.1261 15.0009C28.1261 14.8194 28.0739 14.6417 27.9756 14.4891C25.1303 10.0945 20.379 6.5625 14.9801 6.5625Z" stroke="#4A4A4A" stroke-width="1.9375" stroke-linecap="round" stroke-linejoin="round"/>
<path d="M15 19.6875C17.5888 19.6875 19.6875 17.5888 19.6875 15C19.6875 12.4112 17.5888 10.3125 15 10.3125C12.4112 10.3125 10.3125 12.4112 10.3125 15C10.3125 17.5888 12.4112 19.6875 15 19.6875Z" stroke="#4A4A4A" stroke-width="1.9375" stroke-miterlimit="10"/>
</svg>
