<svg width="500" height="500" viewBox="0 0 500 500" fill="none" xmlns="http://www.w3.org/2000/svg">
<g clip-path="url(#clip0_670_37)">
<path d="M437.5 15.625C463.344 15.625 484.375 36.6562 484.375 62.5V437.5C484.375 463.344 463.344 484.375 437.5 484.375H62.5C36.6562 484.375 15.625 463.344 15.625 437.5V62.5C15.625 36.6562 36.6562 15.625 62.5 15.625H437.5ZM437.5 0H62.5C28.125 0 0 28.125 0 62.5V437.5C0 471.875 28.125 500 62.5 500H437.5C471.875 500 500 471.875 500 437.5V62.5C500 28.125 471.875 0 437.5 0Z" fill="#FF6435"/>
<path fill-rule="evenodd" clip-rule="evenodd" d="M297 213.308H250V164.385C250 150.882 258.422 152.154 268.8 152.154H287.6V91H250C235.042 91 220.696 98.7316 210.119 112.494C199.542 126.256 193.6 144.922 193.6 164.385V213.308H156V274.462H193.6V409H250V274.462H278.2L297 213.308Z" fill="#FF6435"/>
</g>
<defs>
<clipPath id="clip0_670_37">
<rect width="500" height="500" fill="white"/>
</clipPath>
</defs>
</svg>
