<svg width="153" height="206" viewBox="0 0 153 206" fill="none" xmlns="http://www.w3.org/2000/svg">
<path d="M91.3266 78.7035C104.715 73.5777 118.465 68.8939 130.187 60.3932C135.898 56.2459 141.082 51.2802 145.191 45.5459C149.24 39.8955 150.833 32.9589 155.444 27.9003C161.074 21.7124 169.199 19.3174 177.262 21.4429C201.996 27.9644 208.63 61.1534 208.418 82.6039C208.028 119.702 178.783 151.796 149.456 171.493C127.604 186.143 100.276 193.711 74.867 184.525C53.4115 176.761 38.2594 158.368 36.9537 135.389C35.8124 115.436 51.0141 99.4043 67.2127 89.7434C74.7232 85.2668 82.9801 81.8813 91.3266 78.7035V78.7035Z" fill="#FFE7E7"/>
<path d="M118.304 45.7991C119.695 44.7123 121.049 43.5749 122.358 42.3875L121.686 41.647C122.976 40.4765 124.22 39.2576 125.41 37.991L126.138 38.6757C127.349 37.3873 128.505 36.0496 129.598 34.6633L128.813 34.0441C129.351 33.3622 129.873 32.6686 130.378 31.9634L131.191 32.5459L130.378 31.9634C130.858 31.2929 131.305 30.6006 131.728 29.8909L132.587 30.4028C133.463 28.9328 134.229 27.4076 134.969 25.8756L134.068 25.4407C134.267 25.03 134.465 24.6156 134.664 24.1993C135.203 23.0709 135.748 21.9296 136.322 20.8172L137.211 21.2759C137.997 19.7535 138.843 18.2745 139.838 16.89L139.026 16.3064C139.541 15.5901 140.096 14.8945 140.705 14.2273C140.705 14.2271 140.705 14.2268 140.705 14.2266L141.444 14.9003C142.126 14.1505 142.845 13.4565 143.596 12.8194C145.15 11.5009 146.841 10.4264 148.63 9.60749L148.213 8.69828C150.121 7.82479 152.134 7.22876 154.208 6.92309L154.354 7.9124C156.301 7.62535 158.305 7.60639 160.325 7.86703L160.453 6.87526C161.473 7.00694 162.496 7.20682 163.517 7.47597L163.263 8.43942L163.517 7.47598C164.403 7.70966 165.267 7.97667 166.11 8.2754L165.776 9.21791C167.46 9.81508 169.053 10.5425 170.559 11.386L171.048 10.5135C172.638 11.4037 174.132 12.4183 175.536 13.541L174.911 14.3219C176.277 15.4142 177.556 16.6132 178.753 17.9035L179.486 17.2236C180.699 18.5321 181.828 19.9298 182.877 21.4008L182.063 21.9813C183.071 23.3947 184.005 24.8801 184.87 26.4235L185.743 25.9346C186.608 27.4787 187.404 29.0777 188.136 30.7178L187.222 31.125C187.931 32.7149 188.579 34.3463 189.169 36.0066L190.112 35.6715C190.705 37.3398 191.24 39.0353 191.722 40.7457L190.76 41.0168C191.235 42.7052 191.658 44.4096 192.032 46.118L193.009 45.9042C193.389 47.6441 193.719 49.3872 194.003 51.1209L193.016 51.2822C193.302 53.0307 193.54 54.7704 193.733 56.4879L194.727 56.3757C194.929 58.1673 195.084 59.9348 195.196 61.6637L194.198 61.7282C194.314 63.527 194.383 65.2838 194.41 66.9815L195.41 66.9657C195.424 67.8654 195.426 68.7489 195.418 69.6138L195.418 69.6144C195.409 70.4686 195.385 71.3201 195.346 72.1689L194.347 72.1232C194.27 73.8067 194.134 75.4795 193.942 77.1407L194.936 77.2554C194.74 78.9498 194.487 80.6321 194.179 82.3014L193.196 82.12C192.891 83.7722 192.532 85.412 192.122 87.0386L193.091 87.2832C192.676 88.9307 192.208 90.5645 191.691 92.1837L190.738 91.8796C190.229 93.477 189.67 95.0605 189.066 96.6294L190 96.9887C189.391 98.5697 188.737 100.136 188.039 101.686L187.127 101.275C186.44 102.803 185.711 104.316 184.942 105.813L185.831 106.27C185.059 107.774 184.247 109.262 183.399 110.733L182.532 110.233C181.696 111.684 180.823 113.119 179.916 114.537L180.759 115.075C179.849 116.499 178.906 117.905 177.933 119.294L177.114 118.72C176.152 120.092 175.16 121.447 174.14 122.784L174.935 123.39C173.91 124.733 172.858 126.058 171.781 127.364L171.009 126.728C169.942 128.022 168.85 129.298 167.736 130.555L168.484 131.218C167.363 132.483 166.22 133.728 165.057 134.954L164.331 134.265C163.175 135.484 161.999 136.683 160.805 137.861L161.508 138.573C160.304 139.761 159.083 140.929 157.848 142.076L157.168 141.343C155.934 142.488 154.685 143.612 153.424 144.713L154.082 145.466C152.807 146.581 151.519 147.674 150.221 148.743L149.585 147.971C148.283 149.044 146.972 150.093 145.653 151.119L146.267 151.908C144.926 152.95 143.578 153.968 142.226 154.96L141.634 154.154C140.271 155.154 138.903 156.129 137.533 157.077L138.102 157.899C137.406 158.381 136.71 158.855 136.013 159.323L136.012 159.324C135.327 159.783 134.636 160.236 133.941 160.681L133.401 159.839C132.024 160.721 130.626 161.574 129.209 162.397L129.711 163.262C128.283 164.091 126.836 164.89 125.372 165.655L124.909 164.769C123.457 165.528 121.989 166.253 120.505 166.944L120.927 167.85C119.427 168.548 117.912 169.211 116.383 169.835L116.005 168.909C114.487 169.529 112.956 170.11 111.413 170.651L111.744 171.595C110.18 172.143 108.605 172.651 107.019 173.115L106.738 172.155C105.164 172.616 103.58 173.033 101.988 173.405L102.216 174.379C100.601 174.756 98.9767 175.086 97.3462 175.368L97.1759 174.383C95.5607 174.662 93.9393 174.892 92.3136 175.071L92.4232 176.065C90.7741 176.247 89.1202 176.377 87.4632 176.452L87.4177 175.454C85.7828 175.528 84.1454 175.549 82.5074 175.513L82.4858 176.513C80.8287 176.477 79.1706 176.385 77.5134 176.233L77.6045 175.237C75.979 175.089 74.3548 174.882 72.7336 174.615L72.5713 175.602C70.9395 175.334 69.3106 175.005 67.6864 174.614L67.9205 173.642C66.3389 173.261 64.7621 172.821 63.1917 172.317L62.8866 173.27C62.0984 173.017 61.3118 172.749 60.527 172.466L60.5267 172.465C59.7757 172.194 59.0321 171.909 58.2965 171.612L58.6711 170.685C57.2084 170.094 55.7774 169.452 54.3809 168.762L53.9379 169.659C52.5019 168.949 51.1013 168.189 49.7389 167.381L50.2492 166.521C48.8947 165.717 47.5789 164.865 46.3044 163.966L45.7281 164.783C44.42 163.861 43.1545 162.89 41.9344 161.874L42.5745 161.106C41.3663 160.099 40.2036 159.047 39.0894 157.951L38.3883 158.664C37.2485 157.544 36.1583 156.378 35.1206 155.17L35.8792 154.518C34.857 153.328 33.8869 152.097 32.9719 150.825L32.1603 151.41C31.2282 150.115 30.3522 148.78 29.5352 147.406L30.3945 146.895C29.5947 145.551 28.8526 144.17 28.1711 142.754L27.2701 143.188C26.58 141.754 25.951 140.286 25.3859 138.786L26.3217 138.433C25.7726 136.975 25.2849 135.485 24.8616 133.967L23.8984 134.235C23.4728 132.708 23.1111 131.153 22.816 129.572L23.799 129.388C23.5141 127.861 23.2923 126.309 23.1362 124.734L22.1411 124.833C22.0628 124.043 22.0008 123.247 21.9553 122.447L118.304 45.7991ZM118.304 45.7991L117.688 45.011C117.001 45.5477 116.305 46.0719 115.6 46.5836L118.304 45.7991Z" stroke="#FC4F5B" stroke-width="2" stroke-dasharray="5 5"/>
</svg>