<svg width="160" height="290" viewBox="0 0 160 290" fill="none" xmlns="http://www.w3.org/2000/svg">
<path d="M120.819 101.451C127.354 112.997 129.539 125.327 129.165 136.934C128.096 170.45 101.424 188.862 80.5191 211.899C62.9908 231.252 52.3728 267.473 13.8528 262.336C-29.2883 256.582 -52.2869 217.167 -61.7132 185.149C-71.1283 153.111 -70.7095 111.458 -30.9964 102.687C-14.8248 99.126 2.66724 97.8285 17.2661 91.3609C31.7095 84.9688 41.9199 72.9723 58.7992 69.8491C68.9866 67.9705 79.5461 69.6795 89.2189 73.8128C102.533 79.4703 114.174 89.7377 120.819 101.451Z" fill="#FFF5C9"/>
<path d="M128.689 78.9573L128.689 78.9581C129.469 80.335 130.187 81.7229 130.848 83.1194L129.944 83.547C131.286 86.3857 132.386 89.26 133.267 92.1485L134.224 91.8566C135.15 94.8917 135.839 97.9409 136.32 100.98L135.332 101.136C135.82 104.215 136.091 107.285 136.176 110.32L137.176 110.292C137.22 111.861 137.215 113.42 137.165 114.966C137.165 114.966 137.165 114.966 137.165 114.966L136.165 114.934C136.124 116.231 136.044 117.505 135.928 118.757C135.686 121.364 135.286 123.877 134.745 126.307L135.721 126.525C135.147 129.1 134.417 131.583 133.55 133.987L132.61 133.647C131.737 136.065 130.724 138.401 129.588 140.668L130.482 141.115C129.323 143.43 128.04 145.671 126.655 147.851L125.811 147.315C124.448 149.459 122.984 151.545 121.438 153.588L122.235 154.191C120.691 156.231 119.067 158.224 117.384 160.183L116.626 159.532C114.974 161.454 113.263 163.346 111.511 165.219L112.241 165.903C110.501 167.763 108.721 169.603 106.922 171.434L106.209 170.733C104.428 172.545 102.625 174.35 100.818 176.159L101.525 176.866L101.434 176.957C99.6643 178.728 97.8941 180.5 96.1368 182.286L95.4241 181.584C93.6357 183.401 91.8601 185.233 90.1146 187.09L90.8433 187.775C89.9734 188.701 89.1115 189.632 88.2596 190.571C87.4546 191.46 86.6628 192.387 85.8807 193.346L85.1057 192.714C83.5777 194.588 82.0927 196.577 80.6251 198.638L81.4397 199.218C80.0338 201.193 78.6422 203.237 77.2393 205.316L76.4103 204.757C76.0344 205.315 75.658 205.874 75.2807 206.435C74.2799 207.922 73.2727 209.419 72.2509 210.912L73.0761 211.477C71.6758 213.522 70.2447 215.566 68.7631 217.569L67.9591 216.975C66.4813 218.973 64.9551 220.928 63.3595 222.806L64.1214 223.453C62.49 225.373 60.7823 227.216 58.9764 228.946L58.2848 228.224C56.4897 229.943 54.6 231.543 52.5932 232.987L53.1773 233.799C51.1374 235.267 48.9748 236.579 46.6674 237.697L46.2314 236.797C44.0518 237.853 41.7428 238.729 39.2843 239.392L39.5446 240.358C37.1884 240.993 34.7011 241.436 32.0672 241.661L31.9823 240.664C29.6319 240.864 27.1591 240.887 24.5514 240.71L24.4838 241.708C23.2579 241.625 22.0039 241.498 20.7206 241.327L20.8528 240.336L20.7206 241.327C19.3384 241.143 17.9764 240.924 16.6344 240.673L16.8185 239.69C14.0887 239.179 11.4437 238.53 8.88157 237.755L8.59206 238.712C5.90984 237.901 3.31717 236.953 0.812149 235.882L1.2054 234.962C-1.3251 233.88 -3.76498 232.67 -6.11641 231.345L-6.60727 232.216C-9.02699 230.853 -11.3535 229.371 -13.589 227.783L-13.0101 226.968C-15.2389 225.385 -17.3772 223.697 -19.427 221.917L-20.0826 222.672C-22.1672 220.862 -24.1604 218.959 -26.0648 216.979L-25.344 216.285C-27.2348 214.319 -29.038 212.275 -30.7561 210.167L-31.5313 210.798C-33.2719 208.663 -34.9253 206.464 -36.4939 204.216L-35.6739 203.644C-37.2381 201.403 -38.718 199.112 -40.116 196.788L-40.973 197.303C-42.3962 194.937 -43.7349 192.536 -44.9915 190.117L-44.1041 189.656C-45.3706 187.218 -46.5536 184.76 -47.6557 182.299L-48.5684 182.708C-49.704 180.172 -50.7542 177.634 -51.7218 175.11L-50.7881 174.752C-51.7815 172.162 -52.6874 169.587 -53.5091 167.047L-54.4606 167.355C-54.8869 166.037 -55.2907 164.728 -55.6724 163.432L-55.6726 163.431C-56.065 162.096 -56.4404 160.744 -56.7968 159.379L-55.8292 159.126C-56.5266 156.454 -57.1504 153.73 -57.6848 150.977L-58.6665 151.168C-59.2004 148.416 -59.646 145.635 -59.9873 142.846L-58.9947 142.724C-59.3344 139.948 -59.5697 137.165 -59.6848 134.398L-60.6839 134.44C-60.802 131.601 -60.7949 128.776 -60.6454 125.989L-59.6468 126.043C-59.4955 123.224 -59.1967 120.447 -58.7326 117.739L-59.7183 117.57C-59.2336 114.742 -58.5704 111.982 -57.7078 109.32L-56.7565 109.628C-55.8885 106.949 -54.8162 104.375 -53.5188 101.937L-54.4015 101.467C-53.0621 98.9501 -51.4861 96.5706 -49.6509 94.362L-48.8818 95.0011C-47.1324 92.8959 -45.1434 90.9522 -42.8947 89.1991L-43.5095 88.4105C-41.3366 86.7165 -38.9302 85.1983 -36.275 83.8798L-35.8303 84.7755C-33.4491 83.5931 -30.8599 82.5733 -28.0499 81.7347L-28.3358 80.7764C-27.0087 80.3804 -25.6345 80.0244 -24.212 79.7103L-24.2114 79.7101C-22.8606 79.4127 -21.5017 79.1312 -20.1374 78.8614L-19.9434 79.8424C-17.2486 79.3094 -14.5274 78.821 -11.7988 78.3441L-11.9709 77.359C-11.0141 77.1918 -10.0581 77.0263 -9.10293 76.8609C-7.33842 76.5554 -5.57663 76.2503 -3.81686 75.9358L-3.6409 76.9202C-0.912468 76.4325 1.80468 75.9231 4.49166 75.3586L4.28608 74.38C6.99426 73.8111 9.66576 73.1873 12.283 72.4742L12.5459 73.439C15.234 72.7066 17.8696 71.8797 20.4321 70.9218L20.082 69.9851C21.3625 69.5064 22.623 68.9951 23.8611 68.4466L23.8614 68.4465C25.0437 67.9232 26.1989 67.361 27.3335 66.7674L27.797 67.6535C30.129 66.4336 32.3662 65.0884 34.5611 63.6875L34.0231 62.8446C35.7722 61.7282 37.4928 60.5773 39.2237 59.4196C39.6653 59.1242 40.1076 58.8284 40.5512 58.5325L41.1061 59.3645C43.2788 57.9155 45.4621 56.4811 47.7091 55.1318L47.1943 54.2745C49.4424 52.9245 51.7641 51.6525 54.2087 50.5322L54.6253 51.4413C56.9528 50.3747 59.3875 49.4508 61.9763 48.7322L61.7088 47.7686C62.9736 47.4175 64.2747 47.1142 65.6172 46.8658L65.6178 46.8657C66.9251 46.6246 68.2379 46.4414 69.5537 46.3137L69.6504 47.309C72.2338 47.0581 74.8307 47.0255 77.4211 47.1923L77.4854 46.1944C80.1156 46.3639 82.7367 46.7349 85.3285 47.2882L85.1198 48.2662C87.6445 48.8051 90.1435 49.5206 92.5972 50.3946L92.9328 49.4526C94.1716 49.8939 95.3988 50.3749 96.6118 50.8932M128.689 78.9573L96.2189 51.8128M128.689 78.9573C128.097 77.9146 127.467 76.8838 126.801 75.8669L125.965 76.415C124.682 74.457 123.261 72.5494 121.719 70.7083L122.485 70.0662C120.954 68.2372 119.305 66.4737 117.555 64.7904L116.862 65.5111C115.162 63.8767 113.366 62.3184 111.487 60.8503M128.689 78.9573L111.487 60.8503M96.6118 50.8932L96.2189 51.8128M96.6118 50.8932C96.6112 50.893 96.6106 50.8927 96.6099 50.8925L96.2189 51.8128M96.6118 50.8932C97.7184 51.3635 98.8133 51.865 99.8947 52.3959L99.454 53.2936M96.2189 51.8128C97.3091 52.2761 98.388 52.7702 99.454 53.2936M99.454 53.2936C101.581 54.338 103.656 55.4985 105.665 56.7614L106.198 55.9149C108.239 57.198 110.212 58.5851 112.102 60.0623L111.487 60.8503M99.454 53.2936L111.487 60.8503" stroke="#FF8A1F" stroke-width="2" stroke-dasharray="8 8"/>
</svg>