<svg width="29" height="29" viewBox="0 0 29 29" fill="none" xmlns="http://www.w3.org/2000/svg">
<path d="M22.39 0H6.48C2.90119 0 0 2.90119 0 6.48V22.39C0 25.9688 2.90119 28.87 6.48 28.87H22.39C25.9688 28.87 28.87 25.9688 28.87 22.39V6.48C28.87 2.90119 25.9688 0 22.39 0Z" fill="#0B86CA"/>
<path d="M7.99909 11.9999H10.9991V21.6799H7.99909V11.9999ZM9.52909 7.18994C9.8728 7.18995 10.2088 7.29175 10.4947 7.4825C10.7807 7.67326 11.0037 7.94442 11.1357 8.26178C11.2676 8.57914 11.3027 8.92849 11.2364 9.26574C11.17 9.60299 11.0053 9.91304 10.7629 10.1568C10.5206 10.4005 10.2115 10.567 9.87464 10.6353C9.53777 10.7035 9.18823 10.6705 8.87012 10.5403C8.55201 10.4102 8.27957 10.1887 8.08718 9.90389C7.89479 9.61907 7.79107 9.28365 7.78909 8.93994C7.78777 8.7106 7.83181 8.48326 7.91866 8.271C8.00551 8.05874 8.13347 7.86574 8.29518 7.70311C8.45688 7.54047 8.64914 7.41141 8.8609 7.32334C9.07266 7.23527 9.29975 7.18994 9.52909 7.18994Z" fill="white"/>
<path d="M12.9202 12H15.8102V13.32C16.0994 12.8263 16.5174 12.4204 17.0193 12.1457C17.5213 11.8709 18.0884 11.7376 18.6602 11.76C21.6602 11.76 22.2702 13.76 22.2702 16.37V21.68H19.2702V17C19.2702 15.88 19.2702 14.43 17.7102 14.43C16.1502 14.43 15.9102 15.65 15.9102 16.91V21.7H12.9102L12.9202 12Z" fill="white"/>
</svg>
