<svg width="30" height="30" viewBox="0 0 30 30" fill="none" xmlns="http://www.w3.org/2000/svg">
<path d="M3 30C2.451 30 1.905 29.85 1.422 29.553C0.987526 29.2834 0.628949 28.9074 0.380137 28.4607C0.131326 28.014 0.00049455 27.5113 0 27V2.99995C0 1.95895 0.54 0.992951 1.422 0.446951C1.85744 0.179234 2.3538 0.0266569 2.86443 0.00356574C3.37506 -0.0195254 3.88318 0.0876275 4.341 0.314951L28.341 12.315C28.8393 12.5646 29.2583 12.9479 29.5512 13.4221C29.844 13.8963 29.9991 14.4426 29.9991 15C29.9991 15.5573 29.844 16.1036 29.5512 16.5778C29.2583 17.052 28.8393 17.4353 28.341 17.6849L4.341 29.685C3.921 29.895 3.456 30 3 30Z" fill="white"/>
</svg>
