<svg width="37" height="37" viewBox="0 0 37 37" fill="none" xmlns="http://www.w3.org/2000/svg">
<ellipse cx="23.1555" cy="18.2012" rx="13.8445" ry="13.8631" fill="#FFE7E7"/>
<path d="M35.8831 30.7047L28.7659 23.578C27.6389 22.4495 25.9191 22.2121 24.4956 22.8654L23.072 21.44C24.9702 19.183 26.0967 16.2731 26.0967 13.0658C26.0967 5.87942 20.2249 0 13.0484 0C5.87156 0 0 5.87974 0 13.0658C0 20.2523 5.87188 26.1317 13.0484 26.1317C16.1918 26.1317 19.1574 25.0032 21.4113 23.1029L22.8349 24.5284C22.1824 25.8942 22.3603 27.6168 23.5465 28.8045L30.6637 35.9312C31.3753 36.6437 32.3244 37 33.2734 37C34.2225 37 35.1716 36.6437 35.8832 35.9312C37.3068 34.5057 37.3067 32.1895 35.8831 30.7047ZM2.37254 13.1252C2.37254 7.24548 7.1766 2.43498 13.0485 2.43498C18.9203 2.43498 23.7244 7.24548 23.7244 13.1252C23.7244 19.005 18.9203 23.8155 13.0485 23.8155C7.1766 23.8155 2.37254 19.0641 2.37254 13.1252ZM34.1631 34.2681C33.6294 34.8026 32.7991 34.8026 32.265 34.2681L25.1478 27.1414C24.6141 26.607 24.6141 25.7755 25.1478 25.2407C25.3848 25.0033 25.741 24.8248 26.0968 24.8248C26.4526 24.8248 26.7493 24.9437 27.0459 25.2407L34.1631 32.3674C34.6968 32.9019 34.6968 33.7929 34.1631 34.2681Z" fill="#474747"/>
</svg>