<svg width="500" height="500" viewBox="0 0 500 500" fill="none" xmlns="http://www.w3.org/2000/svg">
<g clip-path="url(#clip0_670_37)">
<path d="M437.5 15.625C463.344 15.625 484.375 36.6562 484.375 62.5V437.5C484.375 463.344 463.344 484.375 437.5 484.375H62.5C36.6562 484.375 15.625 463.344 15.625 437.5V62.5C15.625 36.6562 36.6562 15.625 62.5 15.625H437.5ZM437.5 0H62.5C28.125 0 0 28.125 0 62.5V437.5C0 471.875 28.125 500 62.5 500H437.5C471.875 500 500 471.875 500 437.5V62.5C500 28.125 471.875 0 437.5 0Z" fill="#FF6435"/>
<path d="M286.375 133.75C260.391 143.203 243.969 167.593 245.844 194.281L246.469 204.578L236.078 203.312C198.25 198.484 165.188 182.093 137.125 154.547L123.391 140.89L119.859 150.984C112.375 173.468 117.156 197.234 132.75 213.203C141.063 222.031 139.188 223.297 124.859 218.031C119.875 216.359 115.5 215.093 115.094 215.718C113.641 217.203 118.625 236.312 122.578 243.89C127.984 254.406 139 264.687 151.063 270.797L161.25 275.625L149.203 275.828C137.562 275.828 137.156 276.031 138.406 280.468C142.562 294.125 158.984 308.64 177.281 314.937L190.172 319.343L178.953 326.078C161.982 335.862 142.819 341.209 123.234 341.625C113.875 341.828 106.188 342.672 106.188 343.312C106.188 345.406 131.563 357.172 146.313 361.812C190.594 375.468 243.187 369.578 282.687 346.25C310.75 329.64 338.813 296.64 351.922 264.687C359 247.672 366.062 216.562 366.062 201.656C366.062 191.984 366.687 190.718 378.328 179.172C385.187 172.453 391.625 165.093 392.875 162.984C394.953 158.984 394.734 158.984 384.141 162.562C366.469 168.875 363.969 168.031 372.719 158.578C379.156 151.859 386.859 139.656 386.859 136.093C386.859 135.468 383.75 136.515 380.203 138.406C376.469 140.515 368.156 143.672 361.906 145.547L350.625 149.109L340.438 142.172C334.828 138.39 326.938 134.187 322.766 132.922C312.156 129.968 295.937 130.39 286.375 133.75Z" fill="#FF6435"/>
</g>
<defs>
<clipPath id="clip0_670_37">
<rect width="500" height="500" fill="white"/>
</clipPath>
</defs>
</svg>
