<svg width="452" height="352" viewBox="0 0 452 352" fill="none" xmlns="http://www.w3.org/2000/svg">
<path d="M379.489 123.941H291.66C302.535 112.514 309.017 98.2595 309.017 85.2752C309.017 75.8749 305.792 67.7443 299.689 61.7949C293.647 55.8966 285.445 52.7734 275.973 52.7734C262.097 52.7734 246.696 59.7264 234.787 71.3488C231.482 74.5981 228.505 78.1652 225.899 81.9984C223.293 78.1627 220.312 74.5953 217.001 71.3488C205.091 59.7162 189.69 52.7734 175.815 52.7734C166.333 52.7734 158.131 55.8966 152.11 61.7846C145.996 67.7443 142.771 75.8749 142.771 85.2752C142.771 98.2595 149.253 112.514 160.128 123.941H72.2888C69.573 123.941 66.9684 125.02 65.0481 126.941C63.1277 128.861 62.0488 131.466 62.0488 134.181V205.524C62.0488 208.239 63.1277 210.844 65.0481 212.764C66.9684 214.685 69.573 215.764 72.2888 215.764H88.5909V329.253C88.5909 331.969 89.6698 334.574 91.5901 336.494C93.5105 338.415 96.1151 339.493 98.8309 339.493H352.936C355.652 339.493 358.257 338.415 360.177 336.494C362.098 334.574 363.176 331.969 363.176 329.253V215.764H379.489C382.205 215.764 384.809 214.685 386.73 212.764C388.65 210.844 389.729 208.239 389.729 205.524V134.181C389.729 131.466 388.65 128.861 386.73 126.941C384.809 125.02 382.205 123.941 379.489 123.941ZM183.024 195.284V144.421H268.733V195.284H183.024ZM268.743 215.764V319.013H183.034V215.764H268.743ZM275.973 73.2534C278.768 73.2534 282.68 73.8064 285.383 76.4483C287.482 78.4963 288.547 81.4659 288.547 85.2752C288.547 93.457 283.581 103.38 275.584 111.182C267.525 119.057 257.213 123.941 248.693 123.941C245.898 123.941 241.986 123.388 239.293 120.757C237.194 118.709 236.129 115.729 236.129 111.909C236.129 103.738 241.085 93.8051 249.082 86.0125C257.141 78.1379 267.443 73.2534 275.973 73.2534ZM166.394 76.4278C169.088 73.7962 172.999 73.2432 175.795 73.2432C184.325 73.2432 194.626 78.1379 202.685 86.0022C210.672 93.8051 215.639 103.717 215.649 111.889C215.649 115.719 214.584 118.699 212.485 120.736C209.781 123.378 205.87 123.931 203.074 123.931C194.554 123.931 184.243 119.036 176.184 111.172C168.197 103.359 163.22 93.4467 163.22 85.265C163.23 81.4557 164.285 78.4861 166.394 76.4278ZM82.5288 144.421H162.544V195.284H82.5288V144.421ZM109.071 215.764H162.554V319.013H109.071V215.764ZM342.696 319.013H289.213V215.764H342.696V319.013ZM369.249 195.284H289.213V144.421H369.239L369.249 195.284Z" fill="#11578C"/>
</svg>
