<svg width="512" height="512" viewBox="0 0 512 512" fill="none" xmlns="http://www.w3.org/2000/svg">
<g clip-path="url(#clip0_700_100)">
<path d="M352 0H160C117.565 0 76.8687 16.8571 46.8629 46.8629C16.8571 76.8687 0 117.565 0 160L0 352C0 394.435 16.8571 435.131 46.8629 465.137C76.8687 495.143 117.565 512 160 512H352C394.435 512 435.131 495.143 465.137 465.137C495.143 435.131 512 394.435 512 352V160C512 117.565 495.143 76.8687 465.137 46.8629C435.131 16.8571 394.435 0 352 0ZM464 352C464 413.76 413.76 464 352 464H160C98.24 464 48 413.76 48 352V160C48 98.24 98.24 48 160 48H352C413.76 48 464 98.24 464 160V352Z" fill="url(#paint0_linear_700_100)"/>
<path d="M256 128C222.052 128 189.495 141.486 165.49 165.49C141.486 189.495 128 222.052 128 256C128 289.948 141.486 322.505 165.49 346.51C189.495 370.514 222.052 384 256 384C289.948 384 322.505 370.514 346.51 346.51C370.514 322.505 384 289.948 384 256C384 222.052 370.514 189.495 346.51 165.49C322.505 141.486 289.948 128 256 128ZM256 336C234.79 335.975 214.457 327.538 199.46 312.54C184.462 297.543 176.025 277.21 176 256C176 211.872 211.904 176 256 176C300.096 176 336 211.872 336 256C336 300.096 300.096 336 256 336Z" fill="url(#paint1_linear_700_100)"/>
<path d="M393.601 135.456C403.021 135.456 410.657 127.82 410.657 118.4C410.657 108.98 403.021 101.344 393.601 101.344C384.181 101.344 376.545 108.98 376.545 118.4C376.545 127.82 384.181 135.456 393.601 135.456Z" fill="url(#paint2_linear_700_100)"/>
</g>
<defs>
<linearGradient id="paint0_linear_700_100" x1="46.848" y1="465.152" x2="465.152" y2="46.848" gradientUnits="userSpaceOnUse">
<stop stop-color="#FAFDFF"/>
<stop offset="0.507" stop-color="white"/>
<stop offset="0.99" stop-color="white"/>
</linearGradient>
<linearGradient id="paint1_linear_700_100" x1="165.504" y1="346.496" x2="346.496" y2="165.504" gradientUnits="userSpaceOnUse">
<stop stop-color="white"/>
<stop offset="0.507" stop-color="#FEFFFF"/>
<stop offset="0.99" stop-color="white"/>
</linearGradient>
<linearGradient id="paint2_linear_700_100" x1="381.537" y1="130.464" x2="405.665" y2="106.336" gradientUnits="userSpaceOnUse">
<stop stop-color="#11578C"/>
<stop offset="0.507" stop-color="#F44336"/>
<stop offset="0.99" stop-color="#9C27B0"/>
</linearGradient>
<clipPath id="clip0_700_100">
<rect width="512" height="512" fill="white"/>
</clipPath>
</defs>
</svg>
