<svg width="512" height="512" viewBox="0 0 512 512" fill="none" xmlns="http://www.w3.org/2000/svg">
<path d="M490.668 202.668C490.644 182.872 482.769 163.894 468.772 149.897C454.774 135.899 435.796 128.025 416.001 128.001C404.907 128.06 393.969 130.62 384.001 135.49V96.0009C384.024 81.1574 379.615 66.6451 371.339 54.3226C363.064 42 351.298 32.4283 337.55 26.8333C323.801 21.2382 308.695 19.8747 294.167 22.9171C279.639 25.9596 266.349 33.2697 256.001 43.9111C243.72 31.1399 227.285 23.1715 209.652 21.4401C192.019 19.7088 174.347 24.3282 159.818 34.4669C145.288 44.6055 134.854 59.5977 130.394 76.7447C125.934 93.8918 127.741 112.068 135.49 128.001H96.0009C81.1574 127.978 66.6451 132.387 54.3226 140.662C42 148.938 32.4283 160.703 26.8333 174.452C21.2382 188.201 19.8747 203.306 22.9171 217.835C25.9596 232.363 33.2697 245.652 43.9111 256.001C31.1399 268.281 23.1715 284.717 21.4401 302.35C19.7088 319.983 24.3282 337.654 34.4669 352.184C44.6056 366.714 59.5977 377.148 76.7447 381.608C93.8918 386.068 112.068 384.26 128.001 376.511V416.001C127.978 430.844 132.387 445.357 140.662 457.679C148.938 470.002 160.703 479.573 174.452 485.169C188.201 490.764 203.306 492.127 217.835 489.085C232.363 486.042 245.652 478.732 256.001 468.091C268.281 480.862 284.717 488.83 302.35 490.562C319.983 492.293 337.654 487.674 352.184 477.535C366.714 467.396 377.148 452.404 381.608 435.257C386.068 418.11 384.26 399.934 376.511 384.001H416.001C430.844 384.024 445.357 379.615 457.679 371.339C470.002 363.064 479.574 351.298 485.169 337.55C490.764 323.801 492.127 308.695 489.085 294.167C486.042 279.639 478.732 266.349 468.091 256.001C475.23 249.073 480.907 240.784 484.785 231.623C488.663 222.462 490.663 212.616 490.668 202.668ZM277.334 96.0009C277.334 87.514 280.706 79.3746 286.707 73.3735C292.708 67.3723 300.847 64.0009 309.334 64.0009C317.821 64.0009 325.96 67.3723 331.962 73.3735C337.963 79.3746 341.334 87.514 341.334 96.0009V202.668C341.334 211.154 337.963 219.294 331.962 225.295C325.96 231.296 317.821 234.668 309.334 234.668C300.847 234.668 292.708 231.296 286.707 225.295C280.706 219.294 277.334 211.154 277.334 202.668V96.0009ZM128.001 309.334C128.001 315.663 126.124 321.85 122.608 327.112C119.092 332.375 114.094 336.476 108.247 338.898C102.4 341.32 95.9654 341.954 89.758 340.719C83.5506 339.485 77.8488 336.437 73.3735 331.962C68.8982 327.486 65.8505 321.785 64.6158 315.577C63.381 309.37 64.0147 302.936 66.4367 297.088C68.8588 291.241 72.9603 286.243 78.2226 282.727C83.485 279.211 89.6719 277.334 96.0009 277.334H128.001V309.334ZM234.668 416.001C234.668 424.488 231.296 432.627 225.295 438.628C219.294 444.629 211.154 448.001 202.668 448.001C194.181 448.001 186.041 444.629 180.04 438.628C174.039 432.627 170.668 424.488 170.668 416.001V309.334C170.668 300.847 174.039 292.708 180.04 286.707C186.041 280.706 194.181 277.334 202.668 277.334C211.154 277.334 219.294 280.706 225.295 286.707C231.296 292.708 234.668 300.847 234.668 309.334V416.001ZM202.668 234.668H96.0009C87.514 234.668 79.3746 231.296 73.3735 225.295C67.3723 219.294 64.0009 211.154 64.0009 202.668C64.0009 194.181 67.3723 186.041 73.3735 180.04C79.3746 174.039 87.514 170.668 96.0009 170.668H202.668C211.154 170.668 219.294 174.039 225.295 180.04C231.296 186.041 234.668 194.181 234.668 202.668C234.668 211.154 231.296 219.294 225.295 225.295C219.294 231.296 211.154 234.668 202.668 234.668ZM234.668 128.001H202.668C196.339 128.001 190.152 126.124 184.889 122.608C179.627 119.092 175.525 114.094 173.103 108.247C170.681 102.4 170.048 95.9654 171.282 89.758C172.517 83.5506 175.565 77.8488 180.04 73.3735C184.515 68.8982 190.217 65.8505 196.425 64.6158C202.632 63.381 209.066 64.0147 214.913 66.4367C220.761 68.8587 225.758 72.9603 229.275 78.2226C232.791 83.485 234.668 89.6719 234.668 96.0009V128.001ZM256.001 257.244C255.588 256.822 255.179 256.414 254.757 256.001C255.179 255.588 255.588 255.179 256.001 254.757C256.414 255.179 256.822 255.588 257.244 256.001C256.822 256.414 256.414 256.822 256.001 257.244ZM309.334 448.001C300.85 447.992 292.716 444.617 286.717 438.618C280.718 432.619 277.343 424.485 277.334 416.001V384.001H309.334C317.821 384.001 325.96 387.372 331.962 393.373C337.963 399.375 341.334 407.514 341.334 416.001C341.334 424.488 337.963 432.627 331.962 438.628C325.96 444.629 317.821 448.001 309.334 448.001ZM416.001 341.334H309.334C300.847 341.334 292.708 337.963 286.707 331.962C280.706 325.96 277.334 317.821 277.334 309.334C277.334 300.847 280.706 292.708 286.707 286.707C292.708 280.706 300.847 277.334 309.334 277.334H416.001C424.488 277.334 432.627 280.706 438.628 286.707C444.629 292.708 448.001 300.847 448.001 309.334C448.001 317.821 444.629 325.96 438.628 331.962C432.627 337.963 424.488 341.334 416.001 341.334ZM416.001 234.668H384.001V202.668C384.001 196.339 385.878 190.152 389.394 184.889C392.91 179.627 397.908 175.525 403.755 173.103C409.602 170.681 416.036 170.048 422.244 171.282C428.451 172.517 434.153 175.565 438.628 180.04C443.104 184.515 446.151 190.217 447.386 196.425C448.621 202.632 447.987 209.066 445.565 214.913C443.143 220.761 439.042 225.758 433.779 229.275C428.517 232.791 422.33 234.668 416.001 234.668Z" fill="#11578C"/>
</svg>
