<svg width="538" height="475" viewBox="0 0 538 475" fill="none" xmlns="http://www.w3.org/2000/svg">
<path d="M192.256 32.576C139.328 32.576 96.2558 75.648 96.2558 128.576V192.576C96.2558 222.976 110.752 249.76 132.864 267.36C64.2558 291.424 13.5998 355.168 11.2638 432.064C11.1682 436.429 12.7921 440.657 15.7852 443.835C18.7783 447.014 22.9008 448.889 27.2638 449.056H339.264C337.267 445.663 335.911 441.932 335.264 438.048H334.24C321.92 445.728 304.32 443.552 294.24 433.056L278.24 417.056H47.2638C57.8238 342.848 120.512 286.72 197.248 289.056C212.416 289.504 226.752 292.352 240.256 297.056C242.72 284.832 253.024 274.528 265.248 272.064C260.926 270.195 256.527 268.509 252.064 267.008C263.29 258.11 272.369 246.799 278.629 233.914C284.888 221.029 288.168 206.901 288.224 192.576V128.576C288.224 75.648 245.184 32.576 192.256 32.576ZM192.256 64.576C227.968 64.576 256.256 92.832 256.256 128.576V192.576C256.256 228.288 227.968 256.576 192.256 256.576C156.512 256.576 128.256 228.288 128.256 192.576V128.576C128.256 92.832 156.512 64.576 192.256 64.576ZM366.88 193.056C363.205 193.051 359.64 194.311 356.784 196.624C353.929 198.938 351.957 202.164 351.2 205.76L348.672 217.824C344.603 219.116 340.617 220.655 336.736 222.432L326.112 215.808C323.053 213.897 319.439 213.076 315.856 213.476C312.272 213.877 308.928 215.477 306.368 218.016L281.728 242.624C279.163 245.197 277.55 248.567 277.154 252.178C276.759 255.79 277.604 259.429 279.552 262.496L286.432 273.312C284.644 276.997 283.062 280.779 281.696 284.64L269.056 287.616C265.547 288.445 262.42 290.436 260.184 293.264C257.948 296.093 256.733 299.594 256.736 303.2V337.44C256.74 341.04 257.959 344.534 260.194 347.356C262.43 350.178 265.552 352.164 269.056 352.992L281.696 356C283.072 359.872 284.672 363.616 286.432 367.264L279.552 378.048C277.617 381.096 276.769 384.708 277.147 388.298C277.524 391.889 279.105 395.246 281.632 397.824L305.696 422.464C308.266 425.075 311.654 426.725 315.294 427.139C318.934 427.553 322.606 426.704 325.696 424.736L336.64 417.824C340.576 419.68 344.544 421.344 348.64 422.688L351.2 434.848C351.957 438.444 353.929 441.67 356.784 443.984C359.64 446.297 363.205 447.557 366.88 447.552H401.12C404.771 447.547 408.31 446.294 411.15 444.001C413.991 441.708 415.962 438.512 416.736 434.944L419.264 423.328C423.564 421.884 427.774 420.185 431.872 418.24L442.368 424.8C445.406 426.699 448.994 427.523 452.557 427.14C456.119 426.757 459.45 425.189 462.016 422.688L486.112 399.136C488.694 396.616 490.348 393.298 490.807 389.72C491.266 386.142 490.502 382.514 488.64 379.424L481.92 368.448C483.776 364.608 485.44 360.736 486.816 356.736L499.072 354.176C502.662 353.413 505.881 351.438 508.188 348.583C510.495 345.728 511.751 342.167 511.744 338.496V303.2C511.746 299.544 510.497 295.997 508.203 293.15C505.909 290.303 502.709 288.327 499.136 287.552L487.424 285.056C486.026 280.908 484.381 276.847 482.496 272.896L488.992 262.496C490.915 259.428 491.74 255.798 491.333 252.201C490.927 248.603 489.311 245.249 486.752 242.688L462.176 218.048C459.615 215.488 456.261 213.873 452.663 213.466C449.065 213.059 445.436 213.885 442.368 215.808L431.936 222.304C427.997 220.436 423.946 218.811 419.808 217.44L417.248 205.696C416.48 202.122 414.512 198.919 411.671 196.619C408.83 194.32 405.287 193.062 401.632 193.056H366.88ZM379.872 225.056H388.736L390.24 232.256C390.887 235.21 392.357 237.92 394.481 240.072C396.605 242.224 399.295 243.73 402.24 244.416C410.72 246.432 418.56 249.504 425.312 253.696C427.844 255.266 430.764 256.098 433.744 256.098C436.723 256.098 439.644 255.266 442.176 253.696L448.576 249.76L455.136 256.384L451.2 262.688C449.62 265.214 448.777 268.131 448.766 271.111C448.754 274.09 449.575 277.014 451.136 279.552C455.296 286.336 458.432 294.144 460.416 302.624C461.106 305.577 462.622 308.273 464.787 310.398C466.951 312.522 469.674 313.988 472.64 314.624L479.744 316.192V325.568L472.128 327.168C469.189 327.797 466.486 329.241 464.33 331.335C462.173 333.429 460.651 336.089 459.936 339.008C458.07 346.991 454.949 354.628 450.688 361.632C449.111 364.145 448.264 367.047 448.241 370.014C448.219 372.981 449.021 375.895 450.56 378.432L454.624 385.184L448.64 391.072L442.176 387.072C439.644 385.502 436.723 384.67 433.744 384.67C430.764 384.67 427.844 385.502 425.312 387.072C418.528 391.232 410.592 394.272 401.824 396.32C398.867 396.995 396.163 398.497 394.027 400.65C391.892 402.803 390.411 405.518 389.76 408.48L388.16 415.68H379.872L378.272 408.064C377.649 405.105 376.199 402.383 374.093 400.214C371.986 398.045 369.307 396.517 366.368 395.808C358.22 393.984 350.419 390.862 343.264 386.56C340.707 384.945 337.744 384.088 334.72 384.088C331.695 384.088 328.733 384.945 326.176 386.56L319.488 390.816L313.376 384.576L317.824 377.632C319.432 375.101 320.297 372.169 320.32 369.17C320.343 366.172 319.522 363.227 317.952 360.672C313.721 353.84 310.579 346.391 308.64 338.592C307.947 335.709 306.468 333.076 304.366 330.985C302.264 328.894 299.622 327.429 296.736 326.752L288.736 324.832V315.936L296.736 313.952C299.622 313.275 302.264 311.81 304.366 309.719C306.468 307.628 307.947 304.995 308.64 302.112C310.566 294.304 313.697 286.844 317.92 280C319.495 277.448 320.321 274.505 320.304 271.506C320.287 268.507 319.428 265.574 317.824 263.04L313.44 256.256L320 249.696L326.304 253.632C328.847 255.221 331.785 256.064 334.784 256.064C337.782 256.064 340.721 255.221 343.264 253.632C349.344 249.792 357.28 247.104 366.368 244.864C369.297 244.152 371.966 242.627 374.066 240.464C376.167 238.301 377.614 235.589 378.24 232.64L379.872 225.056ZM384.256 272.32C357.92 272.32 336.256 293.984 336.256 320.32C336.256 346.624 357.92 368.32 384.256 368.32C410.56 368.32 432.256 346.624 432.256 320.32C432.256 293.984 410.56 272.32 384.256 272.32ZM384.256 304.32C393.28 304.32 400.256 311.296 400.256 320.32C400.256 329.312 393.28 336.32 384.256 336.32C382.146 336.35 380.052 335.957 378.097 335.164C376.142 334.37 374.367 333.193 372.875 331.701C371.383 330.209 370.206 328.433 369.412 326.478C368.619 324.524 368.226 322.43 368.256 320.32C368.256 311.296 375.232 304.32 384.256 304.32Z" fill="#11578C"/>
</svg>
