<svg width="729" height="512" viewBox="0 0 729 512" fill="none" xmlns="http://www.w3.org/2000/svg">
<g clip-path="url(#clip0_700_92)">
<path d="M485.555 248.542C418.721 212.825 354.727 179.99 289.312 145.707V350.794C358.148 313.374 430.703 279.105 485.839 248.542H485.555Z" fill="white"/>
<path d="M485.555 248.542C418.721 212.825 289.312 145.707 289.312 145.707L461.848 261.673C461.848 261.673 430.419 279.105 485.555 248.542Z" fill="#E8E0E0"/>
<path d="M301.891 511.335C163.07 508.779 115.655 506.48 86.5118 500.475C66.7942 496.486 49.6596 487.628 37.0961 474.78C27.386 465.057 19.664 450.221 13.673 429.638C8.53394 412.49 6.53242 398.222 3.67892 363.371C-0.689252 284.717 -1.73058 220.412 3.67892 148.56C8.14175 108.882 10.3055 61.7787 39.9496 34.2984C53.9466 21.4374 70.2292 13.1608 88.5133 9.73934C117.075 4.31633 238.762 0.0292969 364.736 0.0292969C490.425 0.0292969 612.382 4.31633 640.972 9.73934C663.813 14.0264 685.235 26.8739 697.812 43.4405C724.859 85.9861 725.333 138.891 728.078 180.274C729.214 199.991 729.214 311.954 728.078 331.672C723.804 397.073 720.369 420.212 710.659 444.203C704.655 459.349 699.529 467.342 690.658 476.2C676.744 489.831 659.006 498.898 639.809 502.193C519.677 511.227 417.668 513.187 301.891 511.335ZM485.854 248.541C419.02 212.825 355.026 179.706 289.611 145.423V350.524C358.447 313.104 431.015 278.821 486.138 248.257L485.854 248.541Z" fill="#11578C"/>
</g>
<defs>
<clipPath id="clip0_700_92">
<rect width="728.929" height="512" fill="white"/>
</clipPath>
</defs>
</svg>
