<svg width="48" height="49" viewBox="0 0 48 49" fill="none" xmlns="http://www.w3.org/2000/svg">
<path d="M39.56 32.21C38.2472 31.0259 36.5186 30.4104 34.7529 30.4985C32.9872 30.5866 31.3284 31.3711 30.14 32.68L28.69 34.29C28.0741 34.9652 27.6074 35.7625 27.32 36.63L27.19 37.02L26.81 36.87C20.3587 34.3128 15.0828 29.4573 12 23.24L11.8 22.83L12.24 22.7C13.3938 22.3452 14.4303 21.6853 15.24 20.79L16.69 19.19C17.8754 17.8771 18.4908 16.1472 18.4008 14.3806C18.3108 12.614 17.5227 10.9556 16.21 9.77L13.77 7.56C13.1212 6.9712 12.3625 6.51622 11.5376 6.22111C10.7126 5.926 9.83753 5.79657 8.96246 5.84023C8.08739 5.88389 7.22954 6.09978 6.43805 6.47554C5.64656 6.8513 4.93699 7.37955 4.34999 8.03L2.89999 9.63C2.70704 9.83995 2.52989 10.0639 2.36999 10.3L2.29999 10.38C0.929993 11.55 -0.230007 14.38 0.439993 17.89C1.9806 25.8261 6.05119 33.0493 12.0419 38.4775C18.0326 43.9058 25.6209 47.2468 33.67 48C35.658 48.2232 37.6653 47.8063 39.4 46.81C39.9987 46.4397 40.5381 45.9812 41 45.45L42.45 43.84C43.6341 42.5286 44.2514 40.8021 44.1671 39.0372C44.0828 37.2724 43.3037 35.6125 42 34.42L39.56 32.21ZM24.91 0C24.5191 0.0313707 24.1544 0.208798 23.8884 0.496957C23.6225 0.785115 23.4748 1.16287 23.4748 1.555C23.4748 1.94713 23.6225 2.32489 23.8884 2.61304C24.1544 2.9012 24.5191 3.07863 24.91 3.11C30.149 3.11529 35.172 5.19885 38.8766 8.90342C42.5811 12.608 44.6647 17.6309 44.67 22.87C44.7014 23.2609 44.8788 23.6256 45.167 23.8916C45.4551 24.1575 45.8329 24.3052 46.225 24.3052C46.6171 24.3052 46.9949 24.1575 47.283 23.8916C47.5712 23.6256 47.7486 23.2609 47.78 22.87C47.7721 16.8069 45.36 10.9945 41.0728 6.70724C36.7855 2.42 30.9731 0.00793769 24.91 0Z" fill="white"/>
<path d="M37.06 23.12C37.0914 23.5109 37.2688 23.8756 37.5569 24.1415C37.8451 24.4075 38.2229 24.5552 38.615 24.5552C39.0071 24.5552 39.3849 24.4075 39.673 24.1415C39.9612 23.8756 40.1386 23.5109 40.17 23.12C40.1647 19.0081 38.5289 15.0661 35.6214 12.1586C32.7138 9.25106 28.7719 7.61528 24.66 7.60999C24.4564 7.60999 24.2549 7.65008 24.0668 7.72797C23.8788 7.80587 23.7079 7.92004 23.564 8.06397C23.42 8.2079 23.3059 8.37877 23.228 8.56683C23.1501 8.75488 23.11 8.95644 23.11 9.15999C23.11 9.36353 23.1501 9.56509 23.228 9.75314C23.3059 9.9412 23.42 10.1121 23.564 10.256C23.7079 10.3999 23.8788 10.5141 24.0668 10.592C24.2549 10.6699 24.4564 10.71 24.66 10.71C27.9488 10.7153 31.1012 12.0248 33.4258 14.3512C35.7504 16.6777 37.0573 19.8312 37.06 23.12Z" fill="white"/>
</svg>
