<svg width="1614" height="1283" viewBox="0 0 1614 1283" fill="none" xmlns="http://www.w3.org/2000/svg">
<path d="M1383 739V1219C1383 1236.33 1376.67 1251.33 1364 1264C1351.33 1276.67 1336.33 1283 1319 1283H935V899H679V1283H295C277.667 1283 262.667 1276.67 250 1264C237.333 1251.33 231 1236.33 231 1219V739C231 738.333 231.167 737.333 231.5 736C231.833 734.667 232 733.667 232 733L807 259L1382 733C1382.67 734.333 1383 736.333 1383 739ZM1606 670L1544 744C1538.67 750 1531.67 753.667 1523 755H1520C1511.33 755 1504.33 752.667 1499 748L807 171L115 748C107 753.333 99 755.667 91 755C82.3334 753.667 75.3334 750 70 744L8.00003 670C2.66669 663.333 0.33336 655.5 1.00003 646.5C1.66669 637.5 5.33336 630.333 12 625L731 26C752.333 8.66667 777.667 0 807 0C836.333 0 861.667 8.66667 883 26L1127 230V35C1127 25.6667 1130 18 1136 12C1142 6 1149.67 3 1159 3H1351C1360.33 3 1368 6 1374 12C1380 18 1383 25.6667 1383 35V443L1602 625C1608.67 630.333 1612.33 637.5 1613 646.5C1613.67 655.5 1611.33 663.333 1606 670Z" fill="white"/>
</svg>
