<svg width="20" height="20" viewBox="0 0 20 20" fill="none" xmlns="http://www.w3.org/2000/svg">
<path fill-rule="evenodd" clip-rule="evenodd" d="M10 20C15.523 20 20 15.523 20 10C20 4.477 15.523 0 10 0C4.477 0 0 4.477 0 10C0 15.523 4.477 20 10 20ZM13 8C13 8.79565 12.6839 9.55871 12.1213 10.1213C11.5587 10.6839 10.7956 11 10 11C9.20435 11 8.44129 10.6839 7.87868 10.1213C7.31607 9.55871 7 8.79565 7 8C7 7.20435 7.31607 6.44129 7.87868 5.87868C8.44129 5.31607 9.20435 5 10 5C10.7956 5 11.5587 5.31607 12.1213 5.87868C12.6839 6.44129 13 7.20435 13 8ZM4 15C4.69801 14.0679 5.60377 13.3114 6.64532 12.7906C7.68687 12.2699 8.83551 11.9991 10 12C11.1645 11.9991 12.3131 12.2699 13.3547 12.7906C14.3962 13.3114 15.302 14.0679 16 15C15.302 15.9321 14.3962 16.6886 13.3547 17.2094C12.3131 17.7301 11.1645 18.0009 10 18C8.83551 18.0009 7.68687 17.7301 6.64532 17.2094C5.60377 16.6886 4.69801 15.9321 4 15Z" fill="black" fill-opacity="0.29"/>
</svg>
